M48
; DRILL file {KiCad (6.0.7)} date Mon Dec  5 09:47:26 2022
; FORMAT={-:-/ absolute / inch / decimal}
; #@! TF.CreationDate,2022-12-05T09:47:26-06:00
; #@! TF.GenerationSoftware,Kicad,Pcbnew,(6.0.7)
; #@! TF.FileFunction,MixedPlating,1,2
FMAT,2
INCH
; #@! TA.AperFunction,Plated,PTH,ComponentDrill
T1C0.0315
; #@! TA.AperFunction,Plated,PTH,ComponentDrill
T2C0.0394
; #@! TA.AperFunction,Plated,PTH,ComponentDrill
T3C0.0984
%
G90
G05
T1
X0.77Y-1.26
X0.77Y-1.36
X0.77Y-1.46
X0.77Y-1.56
X0.77Y-1.66
X0.77Y-1.76
X0.77Y-1.86
X0.77Y-1.96
X0.77Y-2.06
X0.77Y-2.16
X0.77Y-2.26
X0.77Y-2.36
X0.77Y-2.46
X0.77Y-2.56
X0.77Y-2.66
X0.77Y-2.76
X1.57Y-1.66
X1.57Y-1.76
X1.57Y-1.86
X1.57Y-1.96
X1.57Y-2.06
X1.57Y-2.16
X1.57Y-2.26
X1.57Y-2.36
X1.57Y-2.46
X1.57Y-2.56
X1.57Y-2.66
X1.57Y-2.76
T2
X2.02Y-1.12
X2.04Y-1.64
X2.04Y-1.74
X2.04Y-1.84
X2.04Y-1.94
X2.04Y-2.04
X2.04Y-2.14
X2.04Y-2.24
X2.04Y-2.34
X2.04Y-2.44
X2.04Y-2.54
X2.04Y-2.64
X2.04Y-2.74
X2.12Y-1.12
X2.22Y-1.12
X2.32Y-1.12
X2.42Y-1.12
X2.52Y-1.12
X2.62Y-1.12
X2.64Y-1.64
X2.64Y-1.74
X2.64Y-1.84
X2.64Y-1.94
X2.64Y-2.04
X2.64Y-2.14
X2.64Y-2.24
X2.64Y-2.34
X2.64Y-2.44
X2.64Y-2.54
X2.64Y-2.64
X2.64Y-2.74
X2.72Y-1.12
X2.82Y-1.12
X2.92Y-1.12
X3.02Y-1.12
X3.12Y-1.12
X3.22Y-1.12
X3.32Y-1.12
X3.42Y-1.12
X3.43Y-1.63
X3.43Y-1.73
X3.43Y-1.83
X3.43Y-1.93
X3.43Y-2.03
X3.43Y-2.13
X3.43Y-2.23
X3.43Y-2.33
X3.43Y-2.43
X3.43Y-2.53
X3.43Y-2.63
X3.43Y-2.73
X3.52Y-1.12
X3.59Y-1.63
X3.59Y-1.73
X3.59Y-1.83
X3.59Y-1.93
X3.59Y-2.03
X3.59Y-2.13
X3.59Y-2.23
X3.59Y-2.33
X3.59Y-2.43
X3.59Y-2.53
X3.59Y-2.63
X3.59Y-2.73
T3
X0.7Y-0.89
X0.7Y-3.1
X3.7Y-0.89
X3.7Y-3.1
T0
M30
