%TF.GenerationSoftware,KiCad,Pcbnew,(6.0.7)*%
%TF.CreationDate,2023-03-27T03:10:45-05:00*%
%TF.ProjectId,Main PCB,4d61696e-2050-4434-922e-6b696361645f,rev?*%
%TF.SameCoordinates,Original*%
%TF.FileFunction,Soldermask,Bot*%
%TF.FilePolarity,Negative*%
%FSLAX46Y46*%
G04 Gerber Fmt 4.6, Leading zero omitted, Abs format (unit mm)*
G04 Created by KiCad (PCBNEW (6.0.7)) date 2023-03-27 03:10:45*
%MOMM*%
%LPD*%
G01*
G04 APERTURE LIST*
%ADD10R,1.700000X1.700000*%
%ADD11O,1.700000X1.700000*%
%ADD12C,5.000000*%
%ADD13C,2.540000*%
%ADD14C,3.200000*%
%ADD15R,1.600000X1.600000*%
%ADD16C,1.600000*%
G04 APERTURE END LIST*
D10*
%TO.C,I2C*%
X51308000Y-28448000D03*
D11*
X53848000Y-28448000D03*
X56388000Y-28448000D03*
X58928000Y-28448000D03*
X61468000Y-28448000D03*
X64008000Y-28448000D03*
X66548000Y-28448000D03*
X69088000Y-28448000D03*
X71628000Y-28448000D03*
X74168000Y-28448000D03*
X76708000Y-28448000D03*
X79248000Y-28448000D03*
X81788000Y-28448000D03*
X84328000Y-28448000D03*
X86868000Y-28448000D03*
X89408000Y-28448000D03*
%TD*%
D12*
%TO.C,H1*%
X18034000Y-22860000D03*
%TD*%
%TO.C,H2*%
X100330000Y-22860000D03*
%TD*%
D10*
%TO.C,GND*%
X91186000Y-69342000D03*
D11*
X91186000Y-66802000D03*
X91186000Y-64262000D03*
X91186000Y-61722000D03*
X91186000Y-59182000D03*
X91186000Y-56642000D03*
X91186000Y-54102000D03*
X91186000Y-51562000D03*
X91186000Y-49022000D03*
X91186000Y-46482000D03*
X91186000Y-43942000D03*
X91186000Y-41402000D03*
%TD*%
D10*
%TO.C,R*%
X51816000Y-41656000D03*
D11*
X51816000Y-44196000D03*
X51816000Y-46736000D03*
X51816000Y-49276000D03*
X51816000Y-51816000D03*
X51816000Y-54356000D03*
X51816000Y-56896000D03*
X51816000Y-59436000D03*
X51816000Y-61976000D03*
X51816000Y-64516000D03*
X51816000Y-67056000D03*
X51816000Y-69596000D03*
%TD*%
D13*
%TO.C,Feather M0\u002A\u002A*%
X38608000Y-73914000D03*
D14*
X20828000Y-28194000D03*
X38608000Y-28194000D03*
D13*
X20828000Y-73914000D03*
D15*
X19558000Y-32004000D03*
D16*
X19558000Y-34544000D03*
X19558000Y-37084000D03*
X19558000Y-39624000D03*
X19558000Y-42164000D03*
X19558000Y-44704000D03*
X19558000Y-47244000D03*
X19558000Y-49784000D03*
X19558000Y-52324000D03*
X19558000Y-54864000D03*
X19558000Y-57404000D03*
X19558000Y-59944000D03*
X19558000Y-62484000D03*
X19558000Y-65024000D03*
X19558000Y-67564000D03*
X19558000Y-70104000D03*
X39878000Y-70104000D03*
X39878000Y-67564000D03*
X39878000Y-65024000D03*
X39878000Y-62484000D03*
X39878000Y-59944000D03*
X39878000Y-57404000D03*
X39878000Y-54864000D03*
X39878000Y-52324000D03*
X39878000Y-49784000D03*
X39878000Y-47244000D03*
X39878000Y-44704000D03*
X39878000Y-42164000D03*
%TD*%
%TO.C,Boron\u002A\u002A*%
X53086000Y-80156500D03*
X55626000Y-80156500D03*
X58166000Y-80156500D03*
X60706000Y-80156500D03*
X63246000Y-80156500D03*
X65786000Y-80156500D03*
X68326000Y-80156500D03*
X70866000Y-80156500D03*
X73406000Y-80156500D03*
X75946000Y-80156500D03*
X78486000Y-80156500D03*
X81026000Y-80156500D03*
X81026000Y-100476500D03*
X78486000Y-100476500D03*
X75946000Y-100476500D03*
X73406000Y-100476500D03*
X70866000Y-100476500D03*
X68326000Y-100476500D03*
X65786000Y-100476500D03*
X63246000Y-100476500D03*
X60706000Y-100476500D03*
X58166000Y-100476500D03*
X55626000Y-100476500D03*
X53086000Y-100476500D03*
X50546000Y-100476500D03*
X48006000Y-100476500D03*
X45466000Y-100476500D03*
D15*
X42926000Y-100476500D03*
D13*
X84836000Y-99206500D03*
D14*
X39116000Y-81426500D03*
X39116000Y-99206500D03*
D13*
X84836000Y-81426500D03*
%TD*%
D11*
%TO.C,BQ24074*%
X77470000Y-108204000D03*
X74930000Y-108204000D03*
X72390000Y-108204000D03*
X69850000Y-108204000D03*
X67310000Y-108204000D03*
X64770000Y-108204000D03*
X62230000Y-108204000D03*
X59690000Y-108204000D03*
X57150000Y-108204000D03*
X54610000Y-108204000D03*
D10*
X52070000Y-108204000D03*
%TD*%
D12*
%TO.C,H3*%
X18034000Y-113538000D03*
%TD*%
D10*
%TO.C,L*%
X67056000Y-41656000D03*
D11*
X67056000Y-44196000D03*
X67056000Y-46736000D03*
X67056000Y-49276000D03*
X67056000Y-51816000D03*
X67056000Y-54356000D03*
X67056000Y-56896000D03*
X67056000Y-59436000D03*
X67056000Y-61976000D03*
X67056000Y-64516000D03*
X67056000Y-67056000D03*
X67056000Y-69596000D03*
%TD*%
D10*
%TO.C,Vin*%
X87122000Y-69342000D03*
D11*
X87122000Y-66802000D03*
X87122000Y-64262000D03*
X87122000Y-61722000D03*
X87122000Y-59182000D03*
X87122000Y-56642000D03*
X87122000Y-54102000D03*
X87122000Y-51562000D03*
X87122000Y-49022000D03*
X87122000Y-46482000D03*
X87122000Y-43942000D03*
X87122000Y-41402000D03*
%TD*%
D12*
%TO.C,H4*%
X100330000Y-113538000D03*
%TD*%
M02*
