%TF.GenerationSoftware,KiCad,Pcbnew,(6.0.7)*%
%TF.CreationDate,2022-12-05T09:46:50-06:00*%
%TF.ProjectId,Main PCB,4d61696e-2050-4434-922e-6b696361645f,rev?*%
%TF.SameCoordinates,Original*%
%TF.FileFunction,Legend,Top*%
%TF.FilePolarity,Positive*%
%FSLAX46Y46*%
G04 Gerber Fmt 4.6, Leading zero omitted, Abs format (unit mm)*
G04 Created by KiCad (PCBNEW (6.0.7)) date 2022-12-05 09:46:50*
%MOMM*%
%LPD*%
G01*
G04 APERTURE LIST*
%ADD10C,0.150000*%
%ADD11C,0.158750*%
%ADD12C,0.120000*%
G04 APERTURE END LIST*
D10*
X68834000Y-39878000D02*
X50038000Y-39878000D01*
X50038000Y-39878000D02*
X50038000Y-71374000D01*
X50038000Y-71374000D02*
X68834000Y-71374000D01*
X68834000Y-71374000D02*
X68834000Y-39878000D01*
D11*
X85924571Y-37404523D02*
X86263238Y-38674523D01*
X86601904Y-37404523D01*
X86940571Y-38674523D02*
X86940571Y-37827857D01*
X86940571Y-37404523D02*
X86892190Y-37465000D01*
X86940571Y-37525476D01*
X86988952Y-37465000D01*
X86940571Y-37404523D01*
X86940571Y-37525476D01*
X87424380Y-37827857D02*
X87424380Y-38674523D01*
X87424380Y-37948809D02*
X87472761Y-37888333D01*
X87569523Y-37827857D01*
X87714666Y-37827857D01*
X87811428Y-37888333D01*
X87859809Y-38009285D01*
X87859809Y-38674523D01*
X89649904Y-37465000D02*
X89553142Y-37404523D01*
X89408000Y-37404523D01*
X89262857Y-37465000D01*
X89166095Y-37585952D01*
X89117714Y-37706904D01*
X89069333Y-37948809D01*
X89069333Y-38130238D01*
X89117714Y-38372142D01*
X89166095Y-38493095D01*
X89262857Y-38614047D01*
X89408000Y-38674523D01*
X89504761Y-38674523D01*
X89649904Y-38614047D01*
X89698285Y-38553571D01*
X89698285Y-38130238D01*
X89504761Y-38130238D01*
X90133714Y-38674523D02*
X90133714Y-37404523D01*
X90714285Y-38674523D01*
X90714285Y-37404523D01*
X91198095Y-38674523D02*
X91198095Y-37404523D01*
X91440000Y-37404523D01*
X91585142Y-37465000D01*
X91681904Y-37585952D01*
X91730285Y-37706904D01*
X91778666Y-37948809D01*
X91778666Y-38130238D01*
X91730285Y-38372142D01*
X91681904Y-38493095D01*
X91585142Y-38614047D01*
X91440000Y-38674523D01*
X91198095Y-38674523D01*
X86015285Y-26168047D02*
X86113257Y-26228523D01*
X86276542Y-26228523D01*
X86341857Y-26168047D01*
X86374514Y-26107571D01*
X86407171Y-25986619D01*
X86407171Y-25865666D01*
X86374514Y-25744714D01*
X86341857Y-25684238D01*
X86276542Y-25623761D01*
X86145914Y-25563285D01*
X86080600Y-25502809D01*
X86047942Y-25442333D01*
X86015285Y-25321380D01*
X86015285Y-25200428D01*
X86047942Y-25079476D01*
X86080600Y-25019000D01*
X86145914Y-24958523D01*
X86309200Y-24958523D01*
X86407171Y-25019000D01*
X86701085Y-26228523D02*
X86701085Y-24958523D01*
X86864371Y-24958523D01*
X86962342Y-25019000D01*
X87027657Y-25139952D01*
X87060314Y-25260904D01*
X87092971Y-25502809D01*
X87092971Y-25684238D01*
X87060314Y-25926142D01*
X87027657Y-26047095D01*
X86962342Y-26168047D01*
X86864371Y-26228523D01*
X86701085Y-26228523D01*
X87484857Y-25502809D02*
X87419542Y-25442333D01*
X87386885Y-25381857D01*
X87354228Y-25260904D01*
X87354228Y-25200428D01*
X87386885Y-25079476D01*
X87419542Y-25019000D01*
X87484857Y-24958523D01*
X87615485Y-24958523D01*
X87680800Y-25019000D01*
X87713457Y-25079476D01*
X87746114Y-25200428D01*
X87746114Y-25260904D01*
X87713457Y-25381857D01*
X87680800Y-25442333D01*
X87615485Y-25502809D01*
X87484857Y-25502809D01*
X87419542Y-25563285D01*
X87386885Y-25623761D01*
X87354228Y-25744714D01*
X87354228Y-25986619D01*
X87386885Y-26107571D01*
X87419542Y-26168047D01*
X87484857Y-26228523D01*
X87615485Y-26228523D01*
X87680800Y-26168047D01*
X87713457Y-26107571D01*
X87746114Y-25986619D01*
X87746114Y-25744714D01*
X87713457Y-25623761D01*
X87680800Y-25563285D01*
X87615485Y-25502809D01*
X88529885Y-26168047D02*
X88627857Y-26228523D01*
X88791142Y-26228523D01*
X88856457Y-26168047D01*
X88889114Y-26107571D01*
X88921771Y-25986619D01*
X88921771Y-25865666D01*
X88889114Y-25744714D01*
X88856457Y-25684238D01*
X88791142Y-25623761D01*
X88660514Y-25563285D01*
X88595200Y-25502809D01*
X88562542Y-25442333D01*
X88529885Y-25321380D01*
X88529885Y-25200428D01*
X88562542Y-25079476D01*
X88595200Y-25019000D01*
X88660514Y-24958523D01*
X88823800Y-24958523D01*
X88921771Y-25019000D01*
X89607571Y-26107571D02*
X89574914Y-26168047D01*
X89476942Y-26228523D01*
X89411628Y-26228523D01*
X89313657Y-26168047D01*
X89248342Y-26047095D01*
X89215685Y-25926142D01*
X89183028Y-25684238D01*
X89183028Y-25502809D01*
X89215685Y-25260904D01*
X89248342Y-25139952D01*
X89313657Y-25019000D01*
X89411628Y-24958523D01*
X89476942Y-24958523D01*
X89574914Y-25019000D01*
X89607571Y-25079476D01*
X89999457Y-25502809D02*
X89934142Y-25442333D01*
X89901485Y-25381857D01*
X89868828Y-25260904D01*
X89868828Y-25200428D01*
X89901485Y-25079476D01*
X89934142Y-25019000D01*
X89999457Y-24958523D01*
X90130085Y-24958523D01*
X90195400Y-25019000D01*
X90228057Y-25079476D01*
X90260714Y-25200428D01*
X90260714Y-25260904D01*
X90228057Y-25381857D01*
X90195400Y-25442333D01*
X90130085Y-25502809D01*
X89999457Y-25502809D01*
X89934142Y-25563285D01*
X89901485Y-25623761D01*
X89868828Y-25744714D01*
X89868828Y-25986619D01*
X89901485Y-26107571D01*
X89934142Y-26168047D01*
X89999457Y-26228523D01*
X90130085Y-26228523D01*
X90195400Y-26168047D01*
X90228057Y-26107571D01*
X90260714Y-25986619D01*
X90260714Y-25744714D01*
X90228057Y-25623761D01*
X90195400Y-25563285D01*
X90130085Y-25502809D01*
X80935285Y-26168047D02*
X81033257Y-26228523D01*
X81196542Y-26228523D01*
X81261857Y-26168047D01*
X81294514Y-26107571D01*
X81327171Y-25986619D01*
X81327171Y-25865666D01*
X81294514Y-25744714D01*
X81261857Y-25684238D01*
X81196542Y-25623761D01*
X81065914Y-25563285D01*
X81000600Y-25502809D01*
X80967942Y-25442333D01*
X80935285Y-25321380D01*
X80935285Y-25200428D01*
X80967942Y-25079476D01*
X81000600Y-25019000D01*
X81065914Y-24958523D01*
X81229200Y-24958523D01*
X81327171Y-25019000D01*
X81621085Y-26228523D02*
X81621085Y-24958523D01*
X81784371Y-24958523D01*
X81882342Y-25019000D01*
X81947657Y-25139952D01*
X81980314Y-25260904D01*
X82012971Y-25502809D01*
X82012971Y-25684238D01*
X81980314Y-25926142D01*
X81947657Y-26047095D01*
X81882342Y-26168047D01*
X81784371Y-26228523D01*
X81621085Y-26228523D01*
X82241571Y-24958523D02*
X82698771Y-24958523D01*
X82404857Y-26228523D01*
X83449885Y-26168047D02*
X83547857Y-26228523D01*
X83711142Y-26228523D01*
X83776457Y-26168047D01*
X83809114Y-26107571D01*
X83841771Y-25986619D01*
X83841771Y-25865666D01*
X83809114Y-25744714D01*
X83776457Y-25684238D01*
X83711142Y-25623761D01*
X83580514Y-25563285D01*
X83515200Y-25502809D01*
X83482542Y-25442333D01*
X83449885Y-25321380D01*
X83449885Y-25200428D01*
X83482542Y-25079476D01*
X83515200Y-25019000D01*
X83580514Y-24958523D01*
X83743800Y-24958523D01*
X83841771Y-25019000D01*
X84527571Y-26107571D02*
X84494914Y-26168047D01*
X84396942Y-26228523D01*
X84331628Y-26228523D01*
X84233657Y-26168047D01*
X84168342Y-26047095D01*
X84135685Y-25926142D01*
X84103028Y-25684238D01*
X84103028Y-25502809D01*
X84135685Y-25260904D01*
X84168342Y-25139952D01*
X84233657Y-25019000D01*
X84331628Y-24958523D01*
X84396942Y-24958523D01*
X84494914Y-25019000D01*
X84527571Y-25079476D01*
X84756171Y-24958523D02*
X85213371Y-24958523D01*
X84919457Y-26228523D01*
X75855285Y-26168047D02*
X75953257Y-26228523D01*
X76116542Y-26228523D01*
X76181857Y-26168047D01*
X76214514Y-26107571D01*
X76247171Y-25986619D01*
X76247171Y-25865666D01*
X76214514Y-25744714D01*
X76181857Y-25684238D01*
X76116542Y-25623761D01*
X75985914Y-25563285D01*
X75920600Y-25502809D01*
X75887942Y-25442333D01*
X75855285Y-25321380D01*
X75855285Y-25200428D01*
X75887942Y-25079476D01*
X75920600Y-25019000D01*
X75985914Y-24958523D01*
X76149200Y-24958523D01*
X76247171Y-25019000D01*
X76541085Y-26228523D02*
X76541085Y-24958523D01*
X76704371Y-24958523D01*
X76802342Y-25019000D01*
X76867657Y-25139952D01*
X76900314Y-25260904D01*
X76932971Y-25502809D01*
X76932971Y-25684238D01*
X76900314Y-25926142D01*
X76867657Y-26047095D01*
X76802342Y-26168047D01*
X76704371Y-26228523D01*
X76541085Y-26228523D01*
X77520800Y-24958523D02*
X77390171Y-24958523D01*
X77324857Y-25019000D01*
X77292200Y-25079476D01*
X77226885Y-25260904D01*
X77194228Y-25502809D01*
X77194228Y-25986619D01*
X77226885Y-26107571D01*
X77259542Y-26168047D01*
X77324857Y-26228523D01*
X77455485Y-26228523D01*
X77520800Y-26168047D01*
X77553457Y-26107571D01*
X77586114Y-25986619D01*
X77586114Y-25684238D01*
X77553457Y-25563285D01*
X77520800Y-25502809D01*
X77455485Y-25442333D01*
X77324857Y-25442333D01*
X77259542Y-25502809D01*
X77226885Y-25563285D01*
X77194228Y-25684238D01*
X78369885Y-26168047D02*
X78467857Y-26228523D01*
X78631142Y-26228523D01*
X78696457Y-26168047D01*
X78729114Y-26107571D01*
X78761771Y-25986619D01*
X78761771Y-25865666D01*
X78729114Y-25744714D01*
X78696457Y-25684238D01*
X78631142Y-25623761D01*
X78500514Y-25563285D01*
X78435200Y-25502809D01*
X78402542Y-25442333D01*
X78369885Y-25321380D01*
X78369885Y-25200428D01*
X78402542Y-25079476D01*
X78435200Y-25019000D01*
X78500514Y-24958523D01*
X78663800Y-24958523D01*
X78761771Y-25019000D01*
X79447571Y-26107571D02*
X79414914Y-26168047D01*
X79316942Y-26228523D01*
X79251628Y-26228523D01*
X79153657Y-26168047D01*
X79088342Y-26047095D01*
X79055685Y-25926142D01*
X79023028Y-25684238D01*
X79023028Y-25502809D01*
X79055685Y-25260904D01*
X79088342Y-25139952D01*
X79153657Y-25019000D01*
X79251628Y-24958523D01*
X79316942Y-24958523D01*
X79414914Y-25019000D01*
X79447571Y-25079476D01*
X80035400Y-24958523D02*
X79904771Y-24958523D01*
X79839457Y-25019000D01*
X79806800Y-25079476D01*
X79741485Y-25260904D01*
X79708828Y-25502809D01*
X79708828Y-25986619D01*
X79741485Y-26107571D01*
X79774142Y-26168047D01*
X79839457Y-26228523D01*
X79970085Y-26228523D01*
X80035400Y-26168047D01*
X80068057Y-26107571D01*
X80100714Y-25986619D01*
X80100714Y-25684238D01*
X80068057Y-25563285D01*
X80035400Y-25502809D01*
X79970085Y-25442333D01*
X79839457Y-25442333D01*
X79774142Y-25502809D01*
X79741485Y-25563285D01*
X79708828Y-25684238D01*
X70775285Y-26168047D02*
X70873257Y-26228523D01*
X71036542Y-26228523D01*
X71101857Y-26168047D01*
X71134514Y-26107571D01*
X71167171Y-25986619D01*
X71167171Y-25865666D01*
X71134514Y-25744714D01*
X71101857Y-25684238D01*
X71036542Y-25623761D01*
X70905914Y-25563285D01*
X70840600Y-25502809D01*
X70807942Y-25442333D01*
X70775285Y-25321380D01*
X70775285Y-25200428D01*
X70807942Y-25079476D01*
X70840600Y-25019000D01*
X70905914Y-24958523D01*
X71069200Y-24958523D01*
X71167171Y-25019000D01*
X71461085Y-26228523D02*
X71461085Y-24958523D01*
X71624371Y-24958523D01*
X71722342Y-25019000D01*
X71787657Y-25139952D01*
X71820314Y-25260904D01*
X71852971Y-25502809D01*
X71852971Y-25684238D01*
X71820314Y-25926142D01*
X71787657Y-26047095D01*
X71722342Y-26168047D01*
X71624371Y-26228523D01*
X71461085Y-26228523D01*
X72473457Y-24958523D02*
X72146885Y-24958523D01*
X72114228Y-25563285D01*
X72146885Y-25502809D01*
X72212200Y-25442333D01*
X72375485Y-25442333D01*
X72440800Y-25502809D01*
X72473457Y-25563285D01*
X72506114Y-25684238D01*
X72506114Y-25986619D01*
X72473457Y-26107571D01*
X72440800Y-26168047D01*
X72375485Y-26228523D01*
X72212200Y-26228523D01*
X72146885Y-26168047D01*
X72114228Y-26107571D01*
X73289885Y-26168047D02*
X73387857Y-26228523D01*
X73551142Y-26228523D01*
X73616457Y-26168047D01*
X73649114Y-26107571D01*
X73681771Y-25986619D01*
X73681771Y-25865666D01*
X73649114Y-25744714D01*
X73616457Y-25684238D01*
X73551142Y-25623761D01*
X73420514Y-25563285D01*
X73355200Y-25502809D01*
X73322542Y-25442333D01*
X73289885Y-25321380D01*
X73289885Y-25200428D01*
X73322542Y-25079476D01*
X73355200Y-25019000D01*
X73420514Y-24958523D01*
X73583800Y-24958523D01*
X73681771Y-25019000D01*
X74367571Y-26107571D02*
X74334914Y-26168047D01*
X74236942Y-26228523D01*
X74171628Y-26228523D01*
X74073657Y-26168047D01*
X74008342Y-26047095D01*
X73975685Y-25926142D01*
X73943028Y-25684238D01*
X73943028Y-25502809D01*
X73975685Y-25260904D01*
X74008342Y-25139952D01*
X74073657Y-25019000D01*
X74171628Y-24958523D01*
X74236942Y-24958523D01*
X74334914Y-25019000D01*
X74367571Y-25079476D01*
X74988057Y-24958523D02*
X74661485Y-24958523D01*
X74628828Y-25563285D01*
X74661485Y-25502809D01*
X74726800Y-25442333D01*
X74890085Y-25442333D01*
X74955400Y-25502809D01*
X74988057Y-25563285D01*
X75020714Y-25684238D01*
X75020714Y-25986619D01*
X74988057Y-26107571D01*
X74955400Y-26168047D01*
X74890085Y-26228523D01*
X74726800Y-26228523D01*
X74661485Y-26168047D01*
X74628828Y-26107571D01*
X65695285Y-26168047D02*
X65793257Y-26228523D01*
X65956542Y-26228523D01*
X66021857Y-26168047D01*
X66054514Y-26107571D01*
X66087171Y-25986619D01*
X66087171Y-25865666D01*
X66054514Y-25744714D01*
X66021857Y-25684238D01*
X65956542Y-25623761D01*
X65825914Y-25563285D01*
X65760600Y-25502809D01*
X65727942Y-25442333D01*
X65695285Y-25321380D01*
X65695285Y-25200428D01*
X65727942Y-25079476D01*
X65760600Y-25019000D01*
X65825914Y-24958523D01*
X65989200Y-24958523D01*
X66087171Y-25019000D01*
X66381085Y-26228523D02*
X66381085Y-24958523D01*
X66544371Y-24958523D01*
X66642342Y-25019000D01*
X66707657Y-25139952D01*
X66740314Y-25260904D01*
X66772971Y-25502809D01*
X66772971Y-25684238D01*
X66740314Y-25926142D01*
X66707657Y-26047095D01*
X66642342Y-26168047D01*
X66544371Y-26228523D01*
X66381085Y-26228523D01*
X67360800Y-25381857D02*
X67360800Y-26228523D01*
X67197514Y-24898047D02*
X67034228Y-25805190D01*
X67458771Y-25805190D01*
X68209885Y-26168047D02*
X68307857Y-26228523D01*
X68471142Y-26228523D01*
X68536457Y-26168047D01*
X68569114Y-26107571D01*
X68601771Y-25986619D01*
X68601771Y-25865666D01*
X68569114Y-25744714D01*
X68536457Y-25684238D01*
X68471142Y-25623761D01*
X68340514Y-25563285D01*
X68275200Y-25502809D01*
X68242542Y-25442333D01*
X68209885Y-25321380D01*
X68209885Y-25200428D01*
X68242542Y-25079476D01*
X68275200Y-25019000D01*
X68340514Y-24958523D01*
X68503800Y-24958523D01*
X68601771Y-25019000D01*
X69287571Y-26107571D02*
X69254914Y-26168047D01*
X69156942Y-26228523D01*
X69091628Y-26228523D01*
X68993657Y-26168047D01*
X68928342Y-26047095D01*
X68895685Y-25926142D01*
X68863028Y-25684238D01*
X68863028Y-25502809D01*
X68895685Y-25260904D01*
X68928342Y-25139952D01*
X68993657Y-25019000D01*
X69091628Y-24958523D01*
X69156942Y-24958523D01*
X69254914Y-25019000D01*
X69287571Y-25079476D01*
X69875400Y-25381857D02*
X69875400Y-26228523D01*
X69712114Y-24898047D02*
X69548828Y-25805190D01*
X69973371Y-25805190D01*
X60615285Y-26168047D02*
X60713257Y-26228523D01*
X60876542Y-26228523D01*
X60941857Y-26168047D01*
X60974514Y-26107571D01*
X61007171Y-25986619D01*
X61007171Y-25865666D01*
X60974514Y-25744714D01*
X60941857Y-25684238D01*
X60876542Y-25623761D01*
X60745914Y-25563285D01*
X60680600Y-25502809D01*
X60647942Y-25442333D01*
X60615285Y-25321380D01*
X60615285Y-25200428D01*
X60647942Y-25079476D01*
X60680600Y-25019000D01*
X60745914Y-24958523D01*
X60909200Y-24958523D01*
X61007171Y-25019000D01*
X61301085Y-26228523D02*
X61301085Y-24958523D01*
X61464371Y-24958523D01*
X61562342Y-25019000D01*
X61627657Y-25139952D01*
X61660314Y-25260904D01*
X61692971Y-25502809D01*
X61692971Y-25684238D01*
X61660314Y-25926142D01*
X61627657Y-26047095D01*
X61562342Y-26168047D01*
X61464371Y-26228523D01*
X61301085Y-26228523D01*
X61921571Y-24958523D02*
X62346114Y-24958523D01*
X62117514Y-25442333D01*
X62215485Y-25442333D01*
X62280800Y-25502809D01*
X62313457Y-25563285D01*
X62346114Y-25684238D01*
X62346114Y-25986619D01*
X62313457Y-26107571D01*
X62280800Y-26168047D01*
X62215485Y-26228523D01*
X62019542Y-26228523D01*
X61954228Y-26168047D01*
X61921571Y-26107571D01*
X63129885Y-26168047D02*
X63227857Y-26228523D01*
X63391142Y-26228523D01*
X63456457Y-26168047D01*
X63489114Y-26107571D01*
X63521771Y-25986619D01*
X63521771Y-25865666D01*
X63489114Y-25744714D01*
X63456457Y-25684238D01*
X63391142Y-25623761D01*
X63260514Y-25563285D01*
X63195200Y-25502809D01*
X63162542Y-25442333D01*
X63129885Y-25321380D01*
X63129885Y-25200428D01*
X63162542Y-25079476D01*
X63195200Y-25019000D01*
X63260514Y-24958523D01*
X63423800Y-24958523D01*
X63521771Y-25019000D01*
X64207571Y-26107571D02*
X64174914Y-26168047D01*
X64076942Y-26228523D01*
X64011628Y-26228523D01*
X63913657Y-26168047D01*
X63848342Y-26047095D01*
X63815685Y-25926142D01*
X63783028Y-25684238D01*
X63783028Y-25502809D01*
X63815685Y-25260904D01*
X63848342Y-25139952D01*
X63913657Y-25019000D01*
X64011628Y-24958523D01*
X64076942Y-24958523D01*
X64174914Y-25019000D01*
X64207571Y-25079476D01*
X64436171Y-24958523D02*
X64860714Y-24958523D01*
X64632114Y-25442333D01*
X64730085Y-25442333D01*
X64795400Y-25502809D01*
X64828057Y-25563285D01*
X64860714Y-25684238D01*
X64860714Y-25986619D01*
X64828057Y-26107571D01*
X64795400Y-26168047D01*
X64730085Y-26228523D01*
X64534142Y-26228523D01*
X64468828Y-26168047D01*
X64436171Y-26107571D01*
X55535285Y-26168047D02*
X55633257Y-26228523D01*
X55796542Y-26228523D01*
X55861857Y-26168047D01*
X55894514Y-26107571D01*
X55927171Y-25986619D01*
X55927171Y-25865666D01*
X55894514Y-25744714D01*
X55861857Y-25684238D01*
X55796542Y-25623761D01*
X55665914Y-25563285D01*
X55600600Y-25502809D01*
X55567942Y-25442333D01*
X55535285Y-25321380D01*
X55535285Y-25200428D01*
X55567942Y-25079476D01*
X55600600Y-25019000D01*
X55665914Y-24958523D01*
X55829200Y-24958523D01*
X55927171Y-25019000D01*
X56221085Y-26228523D02*
X56221085Y-24958523D01*
X56384371Y-24958523D01*
X56482342Y-25019000D01*
X56547657Y-25139952D01*
X56580314Y-25260904D01*
X56612971Y-25502809D01*
X56612971Y-25684238D01*
X56580314Y-25926142D01*
X56547657Y-26047095D01*
X56482342Y-26168047D01*
X56384371Y-26228523D01*
X56221085Y-26228523D01*
X56874228Y-25079476D02*
X56906885Y-25019000D01*
X56972200Y-24958523D01*
X57135485Y-24958523D01*
X57200800Y-25019000D01*
X57233457Y-25079476D01*
X57266114Y-25200428D01*
X57266114Y-25321380D01*
X57233457Y-25502809D01*
X56841571Y-26228523D01*
X57266114Y-26228523D01*
X58049885Y-26168047D02*
X58147857Y-26228523D01*
X58311142Y-26228523D01*
X58376457Y-26168047D01*
X58409114Y-26107571D01*
X58441771Y-25986619D01*
X58441771Y-25865666D01*
X58409114Y-25744714D01*
X58376457Y-25684238D01*
X58311142Y-25623761D01*
X58180514Y-25563285D01*
X58115200Y-25502809D01*
X58082542Y-25442333D01*
X58049885Y-25321380D01*
X58049885Y-25200428D01*
X58082542Y-25079476D01*
X58115200Y-25019000D01*
X58180514Y-24958523D01*
X58343800Y-24958523D01*
X58441771Y-25019000D01*
X59127571Y-26107571D02*
X59094914Y-26168047D01*
X58996942Y-26228523D01*
X58931628Y-26228523D01*
X58833657Y-26168047D01*
X58768342Y-26047095D01*
X58735685Y-25926142D01*
X58703028Y-25684238D01*
X58703028Y-25502809D01*
X58735685Y-25260904D01*
X58768342Y-25139952D01*
X58833657Y-25019000D01*
X58931628Y-24958523D01*
X58996942Y-24958523D01*
X59094914Y-25019000D01*
X59127571Y-25079476D01*
X59388828Y-25079476D02*
X59421485Y-25019000D01*
X59486800Y-24958523D01*
X59650085Y-24958523D01*
X59715400Y-25019000D01*
X59748057Y-25079476D01*
X59780714Y-25200428D01*
X59780714Y-25321380D01*
X59748057Y-25502809D01*
X59356171Y-26228523D01*
X59780714Y-26228523D01*
X50201285Y-26168047D02*
X50299257Y-26228523D01*
X50462542Y-26228523D01*
X50527857Y-26168047D01*
X50560514Y-26107571D01*
X50593171Y-25986619D01*
X50593171Y-25865666D01*
X50560514Y-25744714D01*
X50527857Y-25684238D01*
X50462542Y-25623761D01*
X50331914Y-25563285D01*
X50266600Y-25502809D01*
X50233942Y-25442333D01*
X50201285Y-25321380D01*
X50201285Y-25200428D01*
X50233942Y-25079476D01*
X50266600Y-25019000D01*
X50331914Y-24958523D01*
X50495200Y-24958523D01*
X50593171Y-25019000D01*
X50887085Y-26228523D02*
X50887085Y-24958523D01*
X51050371Y-24958523D01*
X51148342Y-25019000D01*
X51213657Y-25139952D01*
X51246314Y-25260904D01*
X51278971Y-25502809D01*
X51278971Y-25684238D01*
X51246314Y-25926142D01*
X51213657Y-26047095D01*
X51148342Y-26168047D01*
X51050371Y-26228523D01*
X50887085Y-26228523D01*
X51932114Y-26228523D02*
X51540228Y-26228523D01*
X51736171Y-26228523D02*
X51736171Y-24958523D01*
X51670857Y-25139952D01*
X51605542Y-25260904D01*
X51540228Y-25321380D01*
X52715885Y-26168047D02*
X52813857Y-26228523D01*
X52977142Y-26228523D01*
X53042457Y-26168047D01*
X53075114Y-26107571D01*
X53107771Y-25986619D01*
X53107771Y-25865666D01*
X53075114Y-25744714D01*
X53042457Y-25684238D01*
X52977142Y-25623761D01*
X52846514Y-25563285D01*
X52781200Y-25502809D01*
X52748542Y-25442333D01*
X52715885Y-25321380D01*
X52715885Y-25200428D01*
X52748542Y-25079476D01*
X52781200Y-25019000D01*
X52846514Y-24958523D01*
X53009800Y-24958523D01*
X53107771Y-25019000D01*
X53793571Y-26107571D02*
X53760914Y-26168047D01*
X53662942Y-26228523D01*
X53597628Y-26228523D01*
X53499657Y-26168047D01*
X53434342Y-26047095D01*
X53401685Y-25926142D01*
X53369028Y-25684238D01*
X53369028Y-25502809D01*
X53401685Y-25260904D01*
X53434342Y-25139952D01*
X53499657Y-25019000D01*
X53597628Y-24958523D01*
X53662942Y-24958523D01*
X53760914Y-25019000D01*
X53793571Y-25079476D01*
X54446714Y-26228523D02*
X54054828Y-26228523D01*
X54250771Y-26228523D02*
X54250771Y-24958523D01*
X54185457Y-25139952D01*
X54120142Y-25260904D01*
X54054828Y-25321380D01*
D10*
%TO.C,H1*%
X16002095Y-26558380D02*
X16002095Y-25558380D01*
X16002095Y-26034571D02*
X16573523Y-26034571D01*
X16573523Y-26558380D02*
X16573523Y-25558380D01*
X17573523Y-26558380D02*
X17002095Y-26558380D01*
X17287809Y-26558380D02*
X17287809Y-25558380D01*
X17192571Y-25701238D01*
X17097333Y-25796476D01*
X17002095Y-25844095D01*
%TO.C,H3*%
X16002095Y-75692380D02*
X16002095Y-74692380D01*
X16002095Y-75168571D02*
X16573523Y-75168571D01*
X16573523Y-75692380D02*
X16573523Y-74692380D01*
X16954476Y-74692380D02*
X17573523Y-74692380D01*
X17240190Y-75073333D01*
X17383047Y-75073333D01*
X17478285Y-75120952D01*
X17525904Y-75168571D01*
X17573523Y-75263809D01*
X17573523Y-75501904D01*
X17525904Y-75597142D01*
X17478285Y-75644761D01*
X17383047Y-75692380D01*
X17097333Y-75692380D01*
X17002095Y-75644761D01*
X16954476Y-75597142D01*
%TO.C,H4*%
X93218095Y-75692380D02*
X93218095Y-74692380D01*
X93218095Y-75168571D02*
X93789523Y-75168571D01*
X93789523Y-75692380D02*
X93789523Y-74692380D01*
X94694285Y-75025714D02*
X94694285Y-75692380D01*
X94456190Y-74644761D02*
X94218095Y-75359047D01*
X94837142Y-75359047D01*
%TO.C,H2*%
X93218095Y-26558380D02*
X93218095Y-25558380D01*
X93218095Y-26034571D02*
X93789523Y-26034571D01*
X93789523Y-26558380D02*
X93789523Y-25558380D01*
X94218095Y-25653619D02*
X94265714Y-25606000D01*
X94360952Y-25558380D01*
X94599047Y-25558380D01*
X94694285Y-25606000D01*
X94741904Y-25653619D01*
X94789523Y-25748857D01*
X94789523Y-25844095D01*
X94741904Y-25986952D01*
X94170476Y-26558380D01*
X94789523Y-26558380D01*
%TO.C,Vin*%
X86098190Y-71124380D02*
X86431523Y-72124380D01*
X86764857Y-71124380D01*
X87098190Y-72124380D02*
X87098190Y-71457714D01*
X87098190Y-71124380D02*
X87050571Y-71172000D01*
X87098190Y-71219619D01*
X87145809Y-71172000D01*
X87098190Y-71124380D01*
X87098190Y-71219619D01*
X87574380Y-71457714D02*
X87574380Y-72124380D01*
X87574380Y-71552952D02*
X87622000Y-71505333D01*
X87717238Y-71457714D01*
X87860095Y-71457714D01*
X87955333Y-71505333D01*
X88002952Y-71600571D01*
X88002952Y-72124380D01*
%TO.C,GND*%
X90424095Y-71172000D02*
X90328857Y-71124380D01*
X90186000Y-71124380D01*
X90043142Y-71172000D01*
X89947904Y-71267238D01*
X89900285Y-71362476D01*
X89852666Y-71552952D01*
X89852666Y-71695809D01*
X89900285Y-71886285D01*
X89947904Y-71981523D01*
X90043142Y-72076761D01*
X90186000Y-72124380D01*
X90281238Y-72124380D01*
X90424095Y-72076761D01*
X90471714Y-72029142D01*
X90471714Y-71695809D01*
X90281238Y-71695809D01*
X90900285Y-72124380D02*
X90900285Y-71124380D01*
X91471714Y-72124380D01*
X91471714Y-71124380D01*
X91947904Y-72124380D02*
X91947904Y-71124380D01*
X92186000Y-71124380D01*
X92328857Y-71172000D01*
X92424095Y-71267238D01*
X92471714Y-71362476D01*
X92519333Y-71552952D01*
X92519333Y-71695809D01*
X92471714Y-71886285D01*
X92424095Y-71981523D01*
X92328857Y-72076761D01*
X92186000Y-72124380D01*
X91947904Y-72124380D01*
%TO.C,I2C*%
X49430380Y-29424190D02*
X48430380Y-29424190D01*
X48525619Y-28995619D02*
X48478000Y-28948000D01*
X48430380Y-28852761D01*
X48430380Y-28614666D01*
X48478000Y-28519428D01*
X48525619Y-28471809D01*
X48620857Y-28424190D01*
X48716095Y-28424190D01*
X48858952Y-28471809D01*
X49430380Y-29043238D01*
X49430380Y-28424190D01*
X49335142Y-27424190D02*
X49382761Y-27471809D01*
X49430380Y-27614666D01*
X49430380Y-27709904D01*
X49382761Y-27852761D01*
X49287523Y-27948000D01*
X49192285Y-27995619D01*
X49001809Y-28043238D01*
X48858952Y-28043238D01*
X48668476Y-27995619D01*
X48573238Y-27948000D01*
X48478000Y-27852761D01*
X48430380Y-27709904D01*
X48430380Y-27614666D01*
X48478000Y-27471809D01*
X48525619Y-27424190D01*
%TO.C,L*%
X67365523Y-39314380D02*
X66889333Y-39314380D01*
X66889333Y-38314380D01*
%TO.C,R*%
X52125523Y-39314380D02*
X51792190Y-38838190D01*
X51554095Y-39314380D02*
X51554095Y-38314380D01*
X51935047Y-38314380D01*
X52030285Y-38362000D01*
X52077904Y-38409619D01*
X52125523Y-38504857D01*
X52125523Y-38647714D01*
X52077904Y-38742952D01*
X52030285Y-38790571D01*
X51935047Y-38838190D01*
X51554095Y-38838190D01*
%TO.C,M0*%
X28908476Y-24836380D02*
X28908476Y-23836380D01*
X29241809Y-24550666D01*
X29575142Y-23836380D01*
X29575142Y-24836380D01*
X30241809Y-23836380D02*
X30337047Y-23836380D01*
X30432285Y-23884000D01*
X30479904Y-23931619D01*
X30527523Y-24026857D01*
X30575142Y-24217333D01*
X30575142Y-24455428D01*
X30527523Y-24645904D01*
X30479904Y-24741142D01*
X30432285Y-24788761D01*
X30337047Y-24836380D01*
X30241809Y-24836380D01*
X30146571Y-24788761D01*
X30098952Y-24741142D01*
X30051333Y-24645904D01*
X30003714Y-24455428D01*
X30003714Y-24217333D01*
X30051333Y-24026857D01*
X30098952Y-23931619D01*
X30146571Y-23884000D01*
X30241809Y-23836380D01*
D12*
%TO.C,Vin*%
X85792000Y-68072000D02*
X85792000Y-40072000D01*
X88452000Y-40072000D02*
X85792000Y-40072000D01*
X88452000Y-68072000D02*
X88452000Y-40072000D01*
X88452000Y-69342000D02*
X88452000Y-70672000D01*
X88452000Y-70672000D02*
X87122000Y-70672000D01*
X88452000Y-68072000D02*
X85792000Y-68072000D01*
%TO.C,GND*%
X89856000Y-68072000D02*
X89856000Y-40072000D01*
X92516000Y-40072000D02*
X89856000Y-40072000D01*
X92516000Y-68072000D02*
X92516000Y-40072000D01*
X92516000Y-69342000D02*
X92516000Y-70672000D01*
X92516000Y-70672000D02*
X91186000Y-70672000D01*
X92516000Y-68072000D02*
X89856000Y-68072000D01*
%TO.C,I2C*%
X52578000Y-27118000D02*
X90738000Y-27118000D01*
X52578000Y-29778000D02*
X52578000Y-27118000D01*
X90738000Y-29778000D02*
X90738000Y-27118000D01*
X49978000Y-29778000D02*
X49978000Y-28448000D01*
X52578000Y-29778000D02*
X90738000Y-29778000D01*
X51308000Y-29778000D02*
X49978000Y-29778000D01*
%TO.C,L*%
X68386000Y-42926000D02*
X68386000Y-70926000D01*
X65726000Y-70926000D02*
X68386000Y-70926000D01*
X65726000Y-42926000D02*
X65726000Y-70926000D01*
X65726000Y-41656000D02*
X65726000Y-40326000D01*
X65726000Y-40326000D02*
X67056000Y-40326000D01*
X65726000Y-42926000D02*
X68386000Y-42926000D01*
%TO.C,R*%
X53146000Y-42926000D02*
X53146000Y-70926000D01*
X50486000Y-70926000D02*
X53146000Y-70926000D01*
X50486000Y-42926000D02*
X50486000Y-70926000D01*
X50486000Y-41656000D02*
X50486000Y-40326000D01*
X50486000Y-40326000D02*
X51816000Y-40326000D01*
X50486000Y-42926000D02*
X53146000Y-42926000D01*
%TO.C,M0*%
X38608000Y-76564000D02*
G75*
G03*
X41258000Y-73914000I0J2650000D01*
G01*
X41258000Y-28194000D02*
G75*
G03*
X38608000Y-25544000I-2650000J0D01*
G01*
X20828000Y-25544000D02*
G75*
G03*
X18178000Y-28194000I0J-2650000D01*
G01*
X18178000Y-73914000D02*
G75*
G03*
X20828000Y-76564000I2650000J0D01*
G01*
X38608000Y-25544000D02*
X20828000Y-25544000D01*
X17858000Y-33004000D02*
X17858000Y-31004000D01*
X38608000Y-76564000D02*
X20828000Y-76564000D01*
X18178000Y-28194000D02*
X18178000Y-73914000D01*
X41258000Y-28194000D02*
X41258000Y-73914000D01*
%TD*%
M02*
