%TF.GenerationSoftware,KiCad,Pcbnew,(6.0.7)*%
%TF.CreationDate,2023-03-27T03:10:45-05:00*%
%TF.ProjectId,Main PCB,4d61696e-2050-4434-922e-6b696361645f,rev?*%
%TF.SameCoordinates,Original*%
%TF.FileFunction,Legend,Bot*%
%TF.FilePolarity,Positive*%
%FSLAX46Y46*%
G04 Gerber Fmt 4.6, Leading zero omitted, Abs format (unit mm)*
G04 Created by KiCad (PCBNEW (6.0.7)) date 2023-03-27 03:10:45*
%MOMM*%
%LPD*%
G01*
G04 APERTURE LIST*
%ADD10C,0.150000*%
%ADD11C,0.381000*%
G04 APERTURE END LIST*
D10*
X79811333Y-105116380D02*
X79478000Y-106116380D01*
X79144666Y-105116380D01*
X78478000Y-105592571D02*
X78335142Y-105640190D01*
X78287523Y-105687809D01*
X78239904Y-105783047D01*
X78239904Y-105925904D01*
X78287523Y-106021142D01*
X78335142Y-106068761D01*
X78430380Y-106116380D01*
X78811333Y-106116380D01*
X78811333Y-105116380D01*
X78478000Y-105116380D01*
X78382761Y-105164000D01*
X78335142Y-105211619D01*
X78287523Y-105306857D01*
X78287523Y-105402095D01*
X78335142Y-105497333D01*
X78382761Y-105544952D01*
X78478000Y-105592571D01*
X78811333Y-105592571D01*
X77811333Y-105116380D02*
X77811333Y-105925904D01*
X77763714Y-106021142D01*
X77716095Y-106068761D01*
X77620857Y-106116380D01*
X77430380Y-106116380D01*
X77335142Y-106068761D01*
X77287523Y-106021142D01*
X77239904Y-105925904D01*
X77239904Y-105116380D01*
X76811333Y-106068761D02*
X76668476Y-106116380D01*
X76430380Y-106116380D01*
X76335142Y-106068761D01*
X76287523Y-106021142D01*
X76239904Y-105925904D01*
X76239904Y-105830666D01*
X76287523Y-105735428D01*
X76335142Y-105687809D01*
X76430380Y-105640190D01*
X76620857Y-105592571D01*
X76716095Y-105544952D01*
X76763714Y-105497333D01*
X76811333Y-105402095D01*
X76811333Y-105306857D01*
X76763714Y-105211619D01*
X76716095Y-105164000D01*
X76620857Y-105116380D01*
X76382761Y-105116380D01*
X76239904Y-105164000D01*
X60690000Y-104862380D02*
X60499523Y-104862380D01*
X60404285Y-104910000D01*
X60309047Y-105005238D01*
X60261428Y-105195714D01*
X60261428Y-105529047D01*
X60309047Y-105719523D01*
X60404285Y-105814761D01*
X60499523Y-105862380D01*
X60690000Y-105862380D01*
X60785238Y-105814761D01*
X60880476Y-105719523D01*
X60928095Y-105529047D01*
X60928095Y-105195714D01*
X60880476Y-105005238D01*
X60785238Y-104910000D01*
X60690000Y-104862380D01*
X59832857Y-104862380D02*
X59832857Y-105671904D01*
X59785238Y-105767142D01*
X59737619Y-105814761D01*
X59642380Y-105862380D01*
X59451904Y-105862380D01*
X59356666Y-105814761D01*
X59309047Y-105767142D01*
X59261428Y-105671904D01*
X59261428Y-104862380D01*
X58928095Y-104862380D02*
X58356666Y-104862380D01*
X58642380Y-105862380D02*
X58642380Y-104862380D01*
X52831904Y-104910000D02*
X52927142Y-104862380D01*
X53070000Y-104862380D01*
X53212857Y-104910000D01*
X53308095Y-105005238D01*
X53355714Y-105100476D01*
X53403333Y-105290952D01*
X53403333Y-105433809D01*
X53355714Y-105624285D01*
X53308095Y-105719523D01*
X53212857Y-105814761D01*
X53070000Y-105862380D01*
X52974761Y-105862380D01*
X52831904Y-105814761D01*
X52784285Y-105767142D01*
X52784285Y-105433809D01*
X52974761Y-105433809D01*
X52355714Y-105862380D02*
X52355714Y-104862380D01*
X51784285Y-105862380D01*
X51784285Y-104862380D01*
X51308095Y-105862380D02*
X51308095Y-104862380D01*
X51070000Y-104862380D01*
X50927142Y-104910000D01*
X50831904Y-105005238D01*
X50784285Y-105100476D01*
X50736666Y-105290952D01*
X50736666Y-105433809D01*
X50784285Y-105624285D01*
X50831904Y-105719523D01*
X50927142Y-105814761D01*
X51070000Y-105862380D01*
X51308095Y-105862380D01*
D11*
X83820000Y-110744000D02*
X45720000Y-110744000D01*
X45720000Y-110744000D02*
X45720000Y-77724000D01*
X45720000Y-77724000D02*
X83820000Y-77724000D01*
X83820000Y-77724000D02*
X83820000Y-110744000D01*
D10*
X68834000Y-39878000D02*
X50038000Y-39878000D01*
X50038000Y-39878000D02*
X50038000Y-71374000D01*
X50038000Y-71374000D02*
X68834000Y-71374000D01*
X68834000Y-71374000D02*
X68834000Y-39878000D01*
%TO.C,BQ24074*%
X49668571Y-105370666D02*
X49716190Y-105513523D01*
X49763809Y-105561142D01*
X49859047Y-105608761D01*
X50001904Y-105608761D01*
X50097142Y-105561142D01*
X50144761Y-105513523D01*
X50192380Y-105418285D01*
X50192380Y-105037333D01*
X49192380Y-105037333D01*
X49192380Y-105370666D01*
X49240000Y-105465904D01*
X49287619Y-105513523D01*
X49382857Y-105561142D01*
X49478095Y-105561142D01*
X49573333Y-105513523D01*
X49620952Y-105465904D01*
X49668571Y-105370666D01*
X49668571Y-105037333D01*
X50287619Y-106704000D02*
X50240000Y-106608761D01*
X50144761Y-106513523D01*
X50001904Y-106370666D01*
X49954285Y-106275428D01*
X49954285Y-106180190D01*
X50192380Y-106227809D02*
X50144761Y-106132571D01*
X50049523Y-106037333D01*
X49859047Y-105989714D01*
X49525714Y-105989714D01*
X49335238Y-106037333D01*
X49240000Y-106132571D01*
X49192380Y-106227809D01*
X49192380Y-106418285D01*
X49240000Y-106513523D01*
X49335238Y-106608761D01*
X49525714Y-106656380D01*
X49859047Y-106656380D01*
X50049523Y-106608761D01*
X50144761Y-106513523D01*
X50192380Y-106418285D01*
X50192380Y-106227809D01*
X49287619Y-107037333D02*
X49240000Y-107084952D01*
X49192380Y-107180190D01*
X49192380Y-107418285D01*
X49240000Y-107513523D01*
X49287619Y-107561142D01*
X49382857Y-107608761D01*
X49478095Y-107608761D01*
X49620952Y-107561142D01*
X50192380Y-106989714D01*
X50192380Y-107608761D01*
X49525714Y-108465904D02*
X50192380Y-108465904D01*
X49144761Y-108227809D02*
X49859047Y-107989714D01*
X49859047Y-108608761D01*
X49192380Y-109180190D02*
X49192380Y-109275428D01*
X49240000Y-109370666D01*
X49287619Y-109418285D01*
X49382857Y-109465904D01*
X49573333Y-109513523D01*
X49811428Y-109513523D01*
X50001904Y-109465904D01*
X50097142Y-109418285D01*
X50144761Y-109370666D01*
X50192380Y-109275428D01*
X50192380Y-109180190D01*
X50144761Y-109084952D01*
X50097142Y-109037333D01*
X50001904Y-108989714D01*
X49811428Y-108942095D01*
X49573333Y-108942095D01*
X49382857Y-108989714D01*
X49287619Y-109037333D01*
X49240000Y-109084952D01*
X49192380Y-109180190D01*
X49192380Y-109846857D02*
X49192380Y-110513523D01*
X50192380Y-110084952D01*
X49525714Y-111323047D02*
X50192380Y-111323047D01*
X49144761Y-111084952D02*
X49859047Y-110846857D01*
X49859047Y-111465904D01*
%TD*%
M02*
