%TF.GenerationSoftware,KiCad,Pcbnew,(6.0.7)*%
%TF.CreationDate,2022-12-05T09:46:50-06:00*%
%TF.ProjectId,Main PCB,4d61696e-2050-4434-922e-6b696361645f,rev?*%
%TF.SameCoordinates,Original*%
%TF.FileFunction,Soldermask,Bot*%
%TF.FilePolarity,Negative*%
%FSLAX46Y46*%
G04 Gerber Fmt 4.6, Leading zero omitted, Abs format (unit mm)*
G04 Created by KiCad (PCBNEW (6.0.7)) date 2022-12-05 09:46:50*
%MOMM*%
%LPD*%
G01*
G04 APERTURE LIST*
%ADD10C,5.000000*%
%ADD11R,1.700000X1.700000*%
%ADD12O,1.700000X1.700000*%
%ADD13C,1.600000*%
%ADD14R,1.600000X1.600000*%
G04 APERTURE END LIST*
D10*
%TO.C,H1*%
X17780000Y-22606000D03*
%TD*%
%TO.C,H3*%
X17780000Y-78740000D03*
%TD*%
%TO.C,H4*%
X93980000Y-78740000D03*
%TD*%
%TO.C,H2*%
X93980000Y-22606000D03*
%TD*%
D11*
%TO.C,Vin*%
X87122000Y-69342000D03*
D12*
X87122000Y-66802000D03*
X87122000Y-64262000D03*
X87122000Y-61722000D03*
X87122000Y-59182000D03*
X87122000Y-56642000D03*
X87122000Y-54102000D03*
X87122000Y-51562000D03*
X87122000Y-49022000D03*
X87122000Y-46482000D03*
X87122000Y-43942000D03*
X87122000Y-41402000D03*
%TD*%
D11*
%TO.C,GND*%
X91186000Y-69342000D03*
D12*
X91186000Y-66802000D03*
X91186000Y-64262000D03*
X91186000Y-61722000D03*
X91186000Y-59182000D03*
X91186000Y-56642000D03*
X91186000Y-54102000D03*
X91186000Y-51562000D03*
X91186000Y-49022000D03*
X91186000Y-46482000D03*
X91186000Y-43942000D03*
X91186000Y-41402000D03*
%TD*%
D11*
%TO.C,I2C*%
X51308000Y-28448000D03*
D12*
X53848000Y-28448000D03*
X56388000Y-28448000D03*
X58928000Y-28448000D03*
X61468000Y-28448000D03*
X64008000Y-28448000D03*
X66548000Y-28448000D03*
X69088000Y-28448000D03*
X71628000Y-28448000D03*
X74168000Y-28448000D03*
X76708000Y-28448000D03*
X79248000Y-28448000D03*
X81788000Y-28448000D03*
X84328000Y-28448000D03*
X86868000Y-28448000D03*
X89408000Y-28448000D03*
%TD*%
D11*
%TO.C,L*%
X67056000Y-41656000D03*
D12*
X67056000Y-44196000D03*
X67056000Y-46736000D03*
X67056000Y-49276000D03*
X67056000Y-51816000D03*
X67056000Y-54356000D03*
X67056000Y-56896000D03*
X67056000Y-59436000D03*
X67056000Y-61976000D03*
X67056000Y-64516000D03*
X67056000Y-67056000D03*
X67056000Y-69596000D03*
%TD*%
D11*
%TO.C,R*%
X51816000Y-41656000D03*
D12*
X51816000Y-44196000D03*
X51816000Y-46736000D03*
X51816000Y-49276000D03*
X51816000Y-51816000D03*
X51816000Y-54356000D03*
X51816000Y-56896000D03*
X51816000Y-59436000D03*
X51816000Y-61976000D03*
X51816000Y-64516000D03*
X51816000Y-67056000D03*
X51816000Y-69596000D03*
%TD*%
D13*
%TO.C,M0*%
X39878000Y-42164000D03*
X39878000Y-44704000D03*
X39878000Y-47244000D03*
X39878000Y-49784000D03*
X39878000Y-52324000D03*
X39878000Y-54864000D03*
X39878000Y-57404000D03*
X39878000Y-59944000D03*
X39878000Y-62484000D03*
X39878000Y-65024000D03*
X39878000Y-67564000D03*
X39878000Y-70104000D03*
X19558000Y-70104000D03*
X19558000Y-67564000D03*
X19558000Y-65024000D03*
X19558000Y-62484000D03*
X19558000Y-59944000D03*
X19558000Y-57404000D03*
X19558000Y-54864000D03*
X19558000Y-52324000D03*
X19558000Y-49784000D03*
X19558000Y-47244000D03*
X19558000Y-44704000D03*
X19558000Y-42164000D03*
X19558000Y-39624000D03*
X19558000Y-37084000D03*
X19558000Y-34544000D03*
D14*
X19558000Y-32004000D03*
%TD*%
M02*
