%TF.GenerationSoftware,KiCad,Pcbnew,(6.0.7)*%
%TF.CreationDate,2023-03-27T03:10:45-05:00*%
%TF.ProjectId,Main PCB,4d61696e-2050-4434-922e-6b696361645f,rev?*%
%TF.SameCoordinates,Original*%
%TF.FileFunction,Legend,Top*%
%TF.FilePolarity,Positive*%
%FSLAX46Y46*%
G04 Gerber Fmt 4.6, Leading zero omitted, Abs format (unit mm)*
G04 Created by KiCad (PCBNEW (6.0.7)) date 2023-03-27 03:10:45*
%MOMM*%
%LPD*%
G01*
G04 APERTURE LIST*
%ADD10C,0.150000*%
%ADD11C,0.158750*%
%ADD12C,0.120000*%
G04 APERTURE END LIST*
D10*
X50436761Y-113228380D02*
X50436761Y-112228380D01*
X50817714Y-112228380D01*
X50912952Y-112276000D01*
X50960571Y-112323619D01*
X51008190Y-112418857D01*
X51008190Y-112561714D01*
X50960571Y-112656952D01*
X50912952Y-112704571D01*
X50817714Y-112752190D01*
X50436761Y-112752190D01*
X51579619Y-113228380D02*
X51484380Y-113180761D01*
X51436761Y-113085523D01*
X51436761Y-112228380D01*
X52341523Y-113180761D02*
X52246285Y-113228380D01*
X52055809Y-113228380D01*
X51960571Y-113180761D01*
X51912952Y-113085523D01*
X51912952Y-112704571D01*
X51960571Y-112609333D01*
X52055809Y-112561714D01*
X52246285Y-112561714D01*
X52341523Y-112609333D01*
X52389142Y-112704571D01*
X52389142Y-112799809D01*
X51912952Y-112895047D01*
X53246285Y-113228380D02*
X53246285Y-112704571D01*
X53198666Y-112609333D01*
X53103428Y-112561714D01*
X52912952Y-112561714D01*
X52817714Y-112609333D01*
X53246285Y-113180761D02*
X53151047Y-113228380D01*
X52912952Y-113228380D01*
X52817714Y-113180761D01*
X52770095Y-113085523D01*
X52770095Y-112990285D01*
X52817714Y-112895047D01*
X52912952Y-112847428D01*
X53151047Y-112847428D01*
X53246285Y-112799809D01*
X53674857Y-113180761D02*
X53770095Y-113228380D01*
X53960571Y-113228380D01*
X54055809Y-113180761D01*
X54103428Y-113085523D01*
X54103428Y-113037904D01*
X54055809Y-112942666D01*
X53960571Y-112895047D01*
X53817714Y-112895047D01*
X53722476Y-112847428D01*
X53674857Y-112752190D01*
X53674857Y-112704571D01*
X53722476Y-112609333D01*
X53817714Y-112561714D01*
X53960571Y-112561714D01*
X54055809Y-112609333D01*
X54912952Y-113180761D02*
X54817714Y-113228380D01*
X54627238Y-113228380D01*
X54532000Y-113180761D01*
X54484380Y-113085523D01*
X54484380Y-112704571D01*
X54532000Y-112609333D01*
X54627238Y-112561714D01*
X54817714Y-112561714D01*
X54912952Y-112609333D01*
X54960571Y-112704571D01*
X54960571Y-112799809D01*
X54484380Y-112895047D01*
X56579619Y-113228380D02*
X56579619Y-112704571D01*
X56532000Y-112609333D01*
X56436761Y-112561714D01*
X56246285Y-112561714D01*
X56151047Y-112609333D01*
X56579619Y-113180761D02*
X56484380Y-113228380D01*
X56246285Y-113228380D01*
X56151047Y-113180761D01*
X56103428Y-113085523D01*
X56103428Y-112990285D01*
X56151047Y-112895047D01*
X56246285Y-112847428D01*
X56484380Y-112847428D01*
X56579619Y-112799809D01*
X56912952Y-112561714D02*
X57293904Y-112561714D01*
X57055809Y-112228380D02*
X57055809Y-113085523D01*
X57103428Y-113180761D01*
X57198666Y-113228380D01*
X57293904Y-113228380D01*
X57484380Y-112561714D02*
X57865333Y-112561714D01*
X57627238Y-112228380D02*
X57627238Y-113085523D01*
X57674857Y-113180761D01*
X57770095Y-113228380D01*
X57865333Y-113228380D01*
X58627238Y-113228380D02*
X58627238Y-112704571D01*
X58579619Y-112609333D01*
X58484380Y-112561714D01*
X58293904Y-112561714D01*
X58198666Y-112609333D01*
X58627238Y-113180761D02*
X58532000Y-113228380D01*
X58293904Y-113228380D01*
X58198666Y-113180761D01*
X58151047Y-113085523D01*
X58151047Y-112990285D01*
X58198666Y-112895047D01*
X58293904Y-112847428D01*
X58532000Y-112847428D01*
X58627238Y-112799809D01*
X59532000Y-113180761D02*
X59436761Y-113228380D01*
X59246285Y-113228380D01*
X59151047Y-113180761D01*
X59103428Y-113133142D01*
X59055809Y-113037904D01*
X59055809Y-112752190D01*
X59103428Y-112656952D01*
X59151047Y-112609333D01*
X59246285Y-112561714D01*
X59436761Y-112561714D01*
X59532000Y-112609333D01*
X59960571Y-113228380D02*
X59960571Y-112228380D01*
X60389142Y-113228380D02*
X60389142Y-112704571D01*
X60341523Y-112609333D01*
X60246285Y-112561714D01*
X60103428Y-112561714D01*
X60008190Y-112609333D01*
X59960571Y-112656952D01*
X61484380Y-112561714D02*
X61865333Y-112561714D01*
X61627238Y-112228380D02*
X61627238Y-113085523D01*
X61674857Y-113180761D01*
X61770095Y-113228380D01*
X61865333Y-113228380D01*
X62198666Y-113228380D02*
X62198666Y-112228380D01*
X62627238Y-113228380D02*
X62627238Y-112704571D01*
X62579619Y-112609333D01*
X62484380Y-112561714D01*
X62341523Y-112561714D01*
X62246285Y-112609333D01*
X62198666Y-112656952D01*
X63484380Y-113180761D02*
X63389142Y-113228380D01*
X63198666Y-113228380D01*
X63103428Y-113180761D01*
X63055809Y-113085523D01*
X63055809Y-112704571D01*
X63103428Y-112609333D01*
X63198666Y-112561714D01*
X63389142Y-112561714D01*
X63484380Y-112609333D01*
X63531999Y-112704571D01*
X63531999Y-112799809D01*
X63055809Y-112895047D01*
X65055809Y-112704571D02*
X65198666Y-112752190D01*
X65246285Y-112799809D01*
X65293904Y-112895047D01*
X65293904Y-113037904D01*
X65246285Y-113133142D01*
X65198666Y-113180761D01*
X65103428Y-113228380D01*
X64722476Y-113228380D01*
X64722476Y-112228380D01*
X65055809Y-112228380D01*
X65151047Y-112276000D01*
X65198666Y-112323619D01*
X65246285Y-112418857D01*
X65246285Y-112514095D01*
X65198666Y-112609333D01*
X65151047Y-112656952D01*
X65055809Y-112704571D01*
X64722476Y-112704571D01*
X66389142Y-113323619D02*
X66293904Y-113276000D01*
X66198666Y-113180761D01*
X66055809Y-113037904D01*
X65960571Y-112990285D01*
X65865333Y-112990285D01*
X65912952Y-113228380D02*
X65817714Y-113180761D01*
X65722476Y-113085523D01*
X65674857Y-112895047D01*
X65674857Y-112561714D01*
X65722476Y-112371238D01*
X65817714Y-112276000D01*
X65912952Y-112228380D01*
X66103428Y-112228380D01*
X66198666Y-112276000D01*
X66293904Y-112371238D01*
X66341523Y-112561714D01*
X66341523Y-112895047D01*
X66293904Y-113085523D01*
X66198666Y-113180761D01*
X66103428Y-113228380D01*
X65912952Y-113228380D01*
X66722476Y-112323619D02*
X66770095Y-112276000D01*
X66865333Y-112228380D01*
X67103428Y-112228380D01*
X67198666Y-112276000D01*
X67246285Y-112323619D01*
X67293904Y-112418857D01*
X67293904Y-112514095D01*
X67246285Y-112656952D01*
X66674857Y-113228380D01*
X67293904Y-113228380D01*
X68151047Y-112561714D02*
X68151047Y-113228380D01*
X67912952Y-112180761D02*
X67674857Y-112895047D01*
X68293904Y-112895047D01*
X68865333Y-112228380D02*
X68960571Y-112228380D01*
X69055809Y-112276000D01*
X69103428Y-112323619D01*
X69151047Y-112418857D01*
X69198666Y-112609333D01*
X69198666Y-112847428D01*
X69151047Y-113037904D01*
X69103428Y-113133142D01*
X69055809Y-113180761D01*
X68960571Y-113228380D01*
X68865333Y-113228380D01*
X68770095Y-113180761D01*
X68722476Y-113133142D01*
X68674857Y-113037904D01*
X68627238Y-112847428D01*
X68627238Y-112609333D01*
X68674857Y-112418857D01*
X68722476Y-112323619D01*
X68770095Y-112276000D01*
X68865333Y-112228380D01*
X69531999Y-112228380D02*
X70198666Y-112228380D01*
X69770095Y-113228380D01*
X71008190Y-112561714D02*
X71008190Y-113228380D01*
X70770095Y-112180761D02*
X70531999Y-112895047D01*
X71151047Y-112895047D01*
X72722476Y-113228380D02*
X72722476Y-112704571D01*
X72674857Y-112609333D01*
X72579619Y-112561714D01*
X72389142Y-112561714D01*
X72293904Y-112609333D01*
X72722476Y-113180761D02*
X72627238Y-113228380D01*
X72389142Y-113228380D01*
X72293904Y-113180761D01*
X72246285Y-113085523D01*
X72246285Y-112990285D01*
X72293904Y-112895047D01*
X72389142Y-112847428D01*
X72627238Y-112847428D01*
X72722476Y-112799809D01*
X73055809Y-112561714D02*
X73436761Y-112561714D01*
X73198666Y-112228380D02*
X73198666Y-113085523D01*
X73246285Y-113180761D01*
X73341523Y-113228380D01*
X73436761Y-113228380D01*
X74389142Y-112561714D02*
X74770095Y-112561714D01*
X74531999Y-112228380D02*
X74531999Y-113085523D01*
X74579619Y-113180761D01*
X74674857Y-113228380D01*
X74770095Y-113228380D01*
X75103428Y-113228380D02*
X75103428Y-112228380D01*
X75531999Y-113228380D02*
X75531999Y-112704571D01*
X75484380Y-112609333D01*
X75389142Y-112561714D01*
X75246285Y-112561714D01*
X75151047Y-112609333D01*
X75103428Y-112656952D01*
X76389142Y-113180761D02*
X76293904Y-113228380D01*
X76103428Y-113228380D01*
X76008190Y-113180761D01*
X75960571Y-113085523D01*
X75960571Y-112704571D01*
X76008190Y-112609333D01*
X76103428Y-112561714D01*
X76293904Y-112561714D01*
X76389142Y-112609333D01*
X76436761Y-112704571D01*
X76436761Y-112799809D01*
X75960571Y-112895047D01*
X77627238Y-113228380D02*
X77627238Y-112228380D01*
X77627238Y-112609333D02*
X77722476Y-112561714D01*
X77912952Y-112561714D01*
X78008190Y-112609333D01*
X78055809Y-112656952D01*
X78103428Y-112752190D01*
X78103428Y-113037904D01*
X78055809Y-113133142D01*
X78008190Y-113180761D01*
X77912952Y-113228380D01*
X77722476Y-113228380D01*
X77627238Y-113180761D01*
X78960571Y-113228380D02*
X78960571Y-112704571D01*
X78912952Y-112609333D01*
X78817714Y-112561714D01*
X78627238Y-112561714D01*
X78531999Y-112609333D01*
X78960571Y-113180761D02*
X78865333Y-113228380D01*
X78627238Y-113228380D01*
X78531999Y-113180761D01*
X78484380Y-113085523D01*
X78484380Y-112990285D01*
X78531999Y-112895047D01*
X78627238Y-112847428D01*
X78865333Y-112847428D01*
X78960571Y-112799809D01*
X79865333Y-113180761D02*
X79770095Y-113228380D01*
X79579619Y-113228380D01*
X79484380Y-113180761D01*
X79436761Y-113133142D01*
X79389142Y-113037904D01*
X79389142Y-112752190D01*
X79436761Y-112656952D01*
X79484380Y-112609333D01*
X79579619Y-112561714D01*
X79770095Y-112561714D01*
X79865333Y-112609333D01*
X80293904Y-113228380D02*
X80293904Y-112228380D01*
X80389142Y-112847428D02*
X80674857Y-113228380D01*
X80674857Y-112561714D02*
X80293904Y-112942666D01*
X68834000Y-39878000D02*
X50038000Y-39878000D01*
X50038000Y-39878000D02*
X50038000Y-71374000D01*
X50038000Y-71374000D02*
X68834000Y-71374000D01*
X68834000Y-71374000D02*
X68834000Y-39878000D01*
D11*
X86015285Y-26168047D02*
X86113257Y-26228523D01*
X86276542Y-26228523D01*
X86341857Y-26168047D01*
X86374514Y-26107571D01*
X86407171Y-25986619D01*
X86407171Y-25865666D01*
X86374514Y-25744714D01*
X86341857Y-25684238D01*
X86276542Y-25623761D01*
X86145914Y-25563285D01*
X86080600Y-25502809D01*
X86047942Y-25442333D01*
X86015285Y-25321380D01*
X86015285Y-25200428D01*
X86047942Y-25079476D01*
X86080600Y-25019000D01*
X86145914Y-24958523D01*
X86309200Y-24958523D01*
X86407171Y-25019000D01*
X86701085Y-26228523D02*
X86701085Y-24958523D01*
X86864371Y-24958523D01*
X86962342Y-25019000D01*
X87027657Y-25139952D01*
X87060314Y-25260904D01*
X87092971Y-25502809D01*
X87092971Y-25684238D01*
X87060314Y-25926142D01*
X87027657Y-26047095D01*
X86962342Y-26168047D01*
X86864371Y-26228523D01*
X86701085Y-26228523D01*
X87484857Y-25502809D02*
X87419542Y-25442333D01*
X87386885Y-25381857D01*
X87354228Y-25260904D01*
X87354228Y-25200428D01*
X87386885Y-25079476D01*
X87419542Y-25019000D01*
X87484857Y-24958523D01*
X87615485Y-24958523D01*
X87680800Y-25019000D01*
X87713457Y-25079476D01*
X87746114Y-25200428D01*
X87746114Y-25260904D01*
X87713457Y-25381857D01*
X87680800Y-25442333D01*
X87615485Y-25502809D01*
X87484857Y-25502809D01*
X87419542Y-25563285D01*
X87386885Y-25623761D01*
X87354228Y-25744714D01*
X87354228Y-25986619D01*
X87386885Y-26107571D01*
X87419542Y-26168047D01*
X87484857Y-26228523D01*
X87615485Y-26228523D01*
X87680800Y-26168047D01*
X87713457Y-26107571D01*
X87746114Y-25986619D01*
X87746114Y-25744714D01*
X87713457Y-25623761D01*
X87680800Y-25563285D01*
X87615485Y-25502809D01*
X88529885Y-26168047D02*
X88627857Y-26228523D01*
X88791142Y-26228523D01*
X88856457Y-26168047D01*
X88889114Y-26107571D01*
X88921771Y-25986619D01*
X88921771Y-25865666D01*
X88889114Y-25744714D01*
X88856457Y-25684238D01*
X88791142Y-25623761D01*
X88660514Y-25563285D01*
X88595200Y-25502809D01*
X88562542Y-25442333D01*
X88529885Y-25321380D01*
X88529885Y-25200428D01*
X88562542Y-25079476D01*
X88595200Y-25019000D01*
X88660514Y-24958523D01*
X88823800Y-24958523D01*
X88921771Y-25019000D01*
X89607571Y-26107571D02*
X89574914Y-26168047D01*
X89476942Y-26228523D01*
X89411628Y-26228523D01*
X89313657Y-26168047D01*
X89248342Y-26047095D01*
X89215685Y-25926142D01*
X89183028Y-25684238D01*
X89183028Y-25502809D01*
X89215685Y-25260904D01*
X89248342Y-25139952D01*
X89313657Y-25019000D01*
X89411628Y-24958523D01*
X89476942Y-24958523D01*
X89574914Y-25019000D01*
X89607571Y-25079476D01*
X89999457Y-25502809D02*
X89934142Y-25442333D01*
X89901485Y-25381857D01*
X89868828Y-25260904D01*
X89868828Y-25200428D01*
X89901485Y-25079476D01*
X89934142Y-25019000D01*
X89999457Y-24958523D01*
X90130085Y-24958523D01*
X90195400Y-25019000D01*
X90228057Y-25079476D01*
X90260714Y-25200428D01*
X90260714Y-25260904D01*
X90228057Y-25381857D01*
X90195400Y-25442333D01*
X90130085Y-25502809D01*
X89999457Y-25502809D01*
X89934142Y-25563285D01*
X89901485Y-25623761D01*
X89868828Y-25744714D01*
X89868828Y-25986619D01*
X89901485Y-26107571D01*
X89934142Y-26168047D01*
X89999457Y-26228523D01*
X90130085Y-26228523D01*
X90195400Y-26168047D01*
X90228057Y-26107571D01*
X90260714Y-25986619D01*
X90260714Y-25744714D01*
X90228057Y-25623761D01*
X90195400Y-25563285D01*
X90130085Y-25502809D01*
X55535285Y-26168047D02*
X55633257Y-26228523D01*
X55796542Y-26228523D01*
X55861857Y-26168047D01*
X55894514Y-26107571D01*
X55927171Y-25986619D01*
X55927171Y-25865666D01*
X55894514Y-25744714D01*
X55861857Y-25684238D01*
X55796542Y-25623761D01*
X55665914Y-25563285D01*
X55600600Y-25502809D01*
X55567942Y-25442333D01*
X55535285Y-25321380D01*
X55535285Y-25200428D01*
X55567942Y-25079476D01*
X55600600Y-25019000D01*
X55665914Y-24958523D01*
X55829200Y-24958523D01*
X55927171Y-25019000D01*
X56221085Y-26228523D02*
X56221085Y-24958523D01*
X56384371Y-24958523D01*
X56482342Y-25019000D01*
X56547657Y-25139952D01*
X56580314Y-25260904D01*
X56612971Y-25502809D01*
X56612971Y-25684238D01*
X56580314Y-25926142D01*
X56547657Y-26047095D01*
X56482342Y-26168047D01*
X56384371Y-26228523D01*
X56221085Y-26228523D01*
X56874228Y-25079476D02*
X56906885Y-25019000D01*
X56972200Y-24958523D01*
X57135485Y-24958523D01*
X57200800Y-25019000D01*
X57233457Y-25079476D01*
X57266114Y-25200428D01*
X57266114Y-25321380D01*
X57233457Y-25502809D01*
X56841571Y-26228523D01*
X57266114Y-26228523D01*
X58049885Y-26168047D02*
X58147857Y-26228523D01*
X58311142Y-26228523D01*
X58376457Y-26168047D01*
X58409114Y-26107571D01*
X58441771Y-25986619D01*
X58441771Y-25865666D01*
X58409114Y-25744714D01*
X58376457Y-25684238D01*
X58311142Y-25623761D01*
X58180514Y-25563285D01*
X58115200Y-25502809D01*
X58082542Y-25442333D01*
X58049885Y-25321380D01*
X58049885Y-25200428D01*
X58082542Y-25079476D01*
X58115200Y-25019000D01*
X58180514Y-24958523D01*
X58343800Y-24958523D01*
X58441771Y-25019000D01*
X59127571Y-26107571D02*
X59094914Y-26168047D01*
X58996942Y-26228523D01*
X58931628Y-26228523D01*
X58833657Y-26168047D01*
X58768342Y-26047095D01*
X58735685Y-25926142D01*
X58703028Y-25684238D01*
X58703028Y-25502809D01*
X58735685Y-25260904D01*
X58768342Y-25139952D01*
X58833657Y-25019000D01*
X58931628Y-24958523D01*
X58996942Y-24958523D01*
X59094914Y-25019000D01*
X59127571Y-25079476D01*
X59388828Y-25079476D02*
X59421485Y-25019000D01*
X59486800Y-24958523D01*
X59650085Y-24958523D01*
X59715400Y-25019000D01*
X59748057Y-25079476D01*
X59780714Y-25200428D01*
X59780714Y-25321380D01*
X59748057Y-25502809D01*
X59356171Y-26228523D01*
X59780714Y-26228523D01*
X85924571Y-37404523D02*
X86263238Y-38674523D01*
X86601904Y-37404523D01*
X86940571Y-38674523D02*
X86940571Y-37827857D01*
X86940571Y-37404523D02*
X86892190Y-37465000D01*
X86940571Y-37525476D01*
X86988952Y-37465000D01*
X86940571Y-37404523D01*
X86940571Y-37525476D01*
X87424380Y-37827857D02*
X87424380Y-38674523D01*
X87424380Y-37948809D02*
X87472761Y-37888333D01*
X87569523Y-37827857D01*
X87714666Y-37827857D01*
X87811428Y-37888333D01*
X87859809Y-38009285D01*
X87859809Y-38674523D01*
X89649904Y-37465000D02*
X89553142Y-37404523D01*
X89408000Y-37404523D01*
X89262857Y-37465000D01*
X89166095Y-37585952D01*
X89117714Y-37706904D01*
X89069333Y-37948809D01*
X89069333Y-38130238D01*
X89117714Y-38372142D01*
X89166095Y-38493095D01*
X89262857Y-38614047D01*
X89408000Y-38674523D01*
X89504761Y-38674523D01*
X89649904Y-38614047D01*
X89698285Y-38553571D01*
X89698285Y-38130238D01*
X89504761Y-38130238D01*
X90133714Y-38674523D02*
X90133714Y-37404523D01*
X90714285Y-38674523D01*
X90714285Y-37404523D01*
X91198095Y-38674523D02*
X91198095Y-37404523D01*
X91440000Y-37404523D01*
X91585142Y-37465000D01*
X91681904Y-37585952D01*
X91730285Y-37706904D01*
X91778666Y-37948809D01*
X91778666Y-38130238D01*
X91730285Y-38372142D01*
X91681904Y-38493095D01*
X91585142Y-38614047D01*
X91440000Y-38674523D01*
X91198095Y-38674523D01*
X70775285Y-26168047D02*
X70873257Y-26228523D01*
X71036542Y-26228523D01*
X71101857Y-26168047D01*
X71134514Y-26107571D01*
X71167171Y-25986619D01*
X71167171Y-25865666D01*
X71134514Y-25744714D01*
X71101857Y-25684238D01*
X71036542Y-25623761D01*
X70905914Y-25563285D01*
X70840600Y-25502809D01*
X70807942Y-25442333D01*
X70775285Y-25321380D01*
X70775285Y-25200428D01*
X70807942Y-25079476D01*
X70840600Y-25019000D01*
X70905914Y-24958523D01*
X71069200Y-24958523D01*
X71167171Y-25019000D01*
X71461085Y-26228523D02*
X71461085Y-24958523D01*
X71624371Y-24958523D01*
X71722342Y-25019000D01*
X71787657Y-25139952D01*
X71820314Y-25260904D01*
X71852971Y-25502809D01*
X71852971Y-25684238D01*
X71820314Y-25926142D01*
X71787657Y-26047095D01*
X71722342Y-26168047D01*
X71624371Y-26228523D01*
X71461085Y-26228523D01*
X72473457Y-24958523D02*
X72146885Y-24958523D01*
X72114228Y-25563285D01*
X72146885Y-25502809D01*
X72212200Y-25442333D01*
X72375485Y-25442333D01*
X72440800Y-25502809D01*
X72473457Y-25563285D01*
X72506114Y-25684238D01*
X72506114Y-25986619D01*
X72473457Y-26107571D01*
X72440800Y-26168047D01*
X72375485Y-26228523D01*
X72212200Y-26228523D01*
X72146885Y-26168047D01*
X72114228Y-26107571D01*
X73289885Y-26168047D02*
X73387857Y-26228523D01*
X73551142Y-26228523D01*
X73616457Y-26168047D01*
X73649114Y-26107571D01*
X73681771Y-25986619D01*
X73681771Y-25865666D01*
X73649114Y-25744714D01*
X73616457Y-25684238D01*
X73551142Y-25623761D01*
X73420514Y-25563285D01*
X73355200Y-25502809D01*
X73322542Y-25442333D01*
X73289885Y-25321380D01*
X73289885Y-25200428D01*
X73322542Y-25079476D01*
X73355200Y-25019000D01*
X73420514Y-24958523D01*
X73583800Y-24958523D01*
X73681771Y-25019000D01*
X74367571Y-26107571D02*
X74334914Y-26168047D01*
X74236942Y-26228523D01*
X74171628Y-26228523D01*
X74073657Y-26168047D01*
X74008342Y-26047095D01*
X73975685Y-25926142D01*
X73943028Y-25684238D01*
X73943028Y-25502809D01*
X73975685Y-25260904D01*
X74008342Y-25139952D01*
X74073657Y-25019000D01*
X74171628Y-24958523D01*
X74236942Y-24958523D01*
X74334914Y-25019000D01*
X74367571Y-25079476D01*
X74988057Y-24958523D02*
X74661485Y-24958523D01*
X74628828Y-25563285D01*
X74661485Y-25502809D01*
X74726800Y-25442333D01*
X74890085Y-25442333D01*
X74955400Y-25502809D01*
X74988057Y-25563285D01*
X75020714Y-25684238D01*
X75020714Y-25986619D01*
X74988057Y-26107571D01*
X74955400Y-26168047D01*
X74890085Y-26228523D01*
X74726800Y-26228523D01*
X74661485Y-26168047D01*
X74628828Y-26107571D01*
X65695285Y-26168047D02*
X65793257Y-26228523D01*
X65956542Y-26228523D01*
X66021857Y-26168047D01*
X66054514Y-26107571D01*
X66087171Y-25986619D01*
X66087171Y-25865666D01*
X66054514Y-25744714D01*
X66021857Y-25684238D01*
X65956542Y-25623761D01*
X65825914Y-25563285D01*
X65760600Y-25502809D01*
X65727942Y-25442333D01*
X65695285Y-25321380D01*
X65695285Y-25200428D01*
X65727942Y-25079476D01*
X65760600Y-25019000D01*
X65825914Y-24958523D01*
X65989200Y-24958523D01*
X66087171Y-25019000D01*
X66381085Y-26228523D02*
X66381085Y-24958523D01*
X66544371Y-24958523D01*
X66642342Y-25019000D01*
X66707657Y-25139952D01*
X66740314Y-25260904D01*
X66772971Y-25502809D01*
X66772971Y-25684238D01*
X66740314Y-25926142D01*
X66707657Y-26047095D01*
X66642342Y-26168047D01*
X66544371Y-26228523D01*
X66381085Y-26228523D01*
X67360800Y-25381857D02*
X67360800Y-26228523D01*
X67197514Y-24898047D02*
X67034228Y-25805190D01*
X67458771Y-25805190D01*
X68209885Y-26168047D02*
X68307857Y-26228523D01*
X68471142Y-26228523D01*
X68536457Y-26168047D01*
X68569114Y-26107571D01*
X68601771Y-25986619D01*
X68601771Y-25865666D01*
X68569114Y-25744714D01*
X68536457Y-25684238D01*
X68471142Y-25623761D01*
X68340514Y-25563285D01*
X68275200Y-25502809D01*
X68242542Y-25442333D01*
X68209885Y-25321380D01*
X68209885Y-25200428D01*
X68242542Y-25079476D01*
X68275200Y-25019000D01*
X68340514Y-24958523D01*
X68503800Y-24958523D01*
X68601771Y-25019000D01*
X69287571Y-26107571D02*
X69254914Y-26168047D01*
X69156942Y-26228523D01*
X69091628Y-26228523D01*
X68993657Y-26168047D01*
X68928342Y-26047095D01*
X68895685Y-25926142D01*
X68863028Y-25684238D01*
X68863028Y-25502809D01*
X68895685Y-25260904D01*
X68928342Y-25139952D01*
X68993657Y-25019000D01*
X69091628Y-24958523D01*
X69156942Y-24958523D01*
X69254914Y-25019000D01*
X69287571Y-25079476D01*
X69875400Y-25381857D02*
X69875400Y-26228523D01*
X69712114Y-24898047D02*
X69548828Y-25805190D01*
X69973371Y-25805190D01*
X60615285Y-26168047D02*
X60713257Y-26228523D01*
X60876542Y-26228523D01*
X60941857Y-26168047D01*
X60974514Y-26107571D01*
X61007171Y-25986619D01*
X61007171Y-25865666D01*
X60974514Y-25744714D01*
X60941857Y-25684238D01*
X60876542Y-25623761D01*
X60745914Y-25563285D01*
X60680600Y-25502809D01*
X60647942Y-25442333D01*
X60615285Y-25321380D01*
X60615285Y-25200428D01*
X60647942Y-25079476D01*
X60680600Y-25019000D01*
X60745914Y-24958523D01*
X60909200Y-24958523D01*
X61007171Y-25019000D01*
X61301085Y-26228523D02*
X61301085Y-24958523D01*
X61464371Y-24958523D01*
X61562342Y-25019000D01*
X61627657Y-25139952D01*
X61660314Y-25260904D01*
X61692971Y-25502809D01*
X61692971Y-25684238D01*
X61660314Y-25926142D01*
X61627657Y-26047095D01*
X61562342Y-26168047D01*
X61464371Y-26228523D01*
X61301085Y-26228523D01*
X61921571Y-24958523D02*
X62346114Y-24958523D01*
X62117514Y-25442333D01*
X62215485Y-25442333D01*
X62280800Y-25502809D01*
X62313457Y-25563285D01*
X62346114Y-25684238D01*
X62346114Y-25986619D01*
X62313457Y-26107571D01*
X62280800Y-26168047D01*
X62215485Y-26228523D01*
X62019542Y-26228523D01*
X61954228Y-26168047D01*
X61921571Y-26107571D01*
X63129885Y-26168047D02*
X63227857Y-26228523D01*
X63391142Y-26228523D01*
X63456457Y-26168047D01*
X63489114Y-26107571D01*
X63521771Y-25986619D01*
X63521771Y-25865666D01*
X63489114Y-25744714D01*
X63456457Y-25684238D01*
X63391142Y-25623761D01*
X63260514Y-25563285D01*
X63195200Y-25502809D01*
X63162542Y-25442333D01*
X63129885Y-25321380D01*
X63129885Y-25200428D01*
X63162542Y-25079476D01*
X63195200Y-25019000D01*
X63260514Y-24958523D01*
X63423800Y-24958523D01*
X63521771Y-25019000D01*
X64207571Y-26107571D02*
X64174914Y-26168047D01*
X64076942Y-26228523D01*
X64011628Y-26228523D01*
X63913657Y-26168047D01*
X63848342Y-26047095D01*
X63815685Y-25926142D01*
X63783028Y-25684238D01*
X63783028Y-25502809D01*
X63815685Y-25260904D01*
X63848342Y-25139952D01*
X63913657Y-25019000D01*
X64011628Y-24958523D01*
X64076942Y-24958523D01*
X64174914Y-25019000D01*
X64207571Y-25079476D01*
X64436171Y-24958523D02*
X64860714Y-24958523D01*
X64632114Y-25442333D01*
X64730085Y-25442333D01*
X64795400Y-25502809D01*
X64828057Y-25563285D01*
X64860714Y-25684238D01*
X64860714Y-25986619D01*
X64828057Y-26107571D01*
X64795400Y-26168047D01*
X64730085Y-26228523D01*
X64534142Y-26228523D01*
X64468828Y-26168047D01*
X64436171Y-26107571D01*
X50201285Y-26168047D02*
X50299257Y-26228523D01*
X50462542Y-26228523D01*
X50527857Y-26168047D01*
X50560514Y-26107571D01*
X50593171Y-25986619D01*
X50593171Y-25865666D01*
X50560514Y-25744714D01*
X50527857Y-25684238D01*
X50462542Y-25623761D01*
X50331914Y-25563285D01*
X50266600Y-25502809D01*
X50233942Y-25442333D01*
X50201285Y-25321380D01*
X50201285Y-25200428D01*
X50233942Y-25079476D01*
X50266600Y-25019000D01*
X50331914Y-24958523D01*
X50495200Y-24958523D01*
X50593171Y-25019000D01*
X50887085Y-26228523D02*
X50887085Y-24958523D01*
X51050371Y-24958523D01*
X51148342Y-25019000D01*
X51213657Y-25139952D01*
X51246314Y-25260904D01*
X51278971Y-25502809D01*
X51278971Y-25684238D01*
X51246314Y-25926142D01*
X51213657Y-26047095D01*
X51148342Y-26168047D01*
X51050371Y-26228523D01*
X50887085Y-26228523D01*
X51932114Y-26228523D02*
X51540228Y-26228523D01*
X51736171Y-26228523D02*
X51736171Y-24958523D01*
X51670857Y-25139952D01*
X51605542Y-25260904D01*
X51540228Y-25321380D01*
X52715885Y-26168047D02*
X52813857Y-26228523D01*
X52977142Y-26228523D01*
X53042457Y-26168047D01*
X53075114Y-26107571D01*
X53107771Y-25986619D01*
X53107771Y-25865666D01*
X53075114Y-25744714D01*
X53042457Y-25684238D01*
X52977142Y-25623761D01*
X52846514Y-25563285D01*
X52781200Y-25502809D01*
X52748542Y-25442333D01*
X52715885Y-25321380D01*
X52715885Y-25200428D01*
X52748542Y-25079476D01*
X52781200Y-25019000D01*
X52846514Y-24958523D01*
X53009800Y-24958523D01*
X53107771Y-25019000D01*
X53793571Y-26107571D02*
X53760914Y-26168047D01*
X53662942Y-26228523D01*
X53597628Y-26228523D01*
X53499657Y-26168047D01*
X53434342Y-26047095D01*
X53401685Y-25926142D01*
X53369028Y-25684238D01*
X53369028Y-25502809D01*
X53401685Y-25260904D01*
X53434342Y-25139952D01*
X53499657Y-25019000D01*
X53597628Y-24958523D01*
X53662942Y-24958523D01*
X53760914Y-25019000D01*
X53793571Y-25079476D01*
X54446714Y-26228523D02*
X54054828Y-26228523D01*
X54250771Y-26228523D02*
X54250771Y-24958523D01*
X54185457Y-25139952D01*
X54120142Y-25260904D01*
X54054828Y-25321380D01*
X80935285Y-26168047D02*
X81033257Y-26228523D01*
X81196542Y-26228523D01*
X81261857Y-26168047D01*
X81294514Y-26107571D01*
X81327171Y-25986619D01*
X81327171Y-25865666D01*
X81294514Y-25744714D01*
X81261857Y-25684238D01*
X81196542Y-25623761D01*
X81065914Y-25563285D01*
X81000600Y-25502809D01*
X80967942Y-25442333D01*
X80935285Y-25321380D01*
X80935285Y-25200428D01*
X80967942Y-25079476D01*
X81000600Y-25019000D01*
X81065914Y-24958523D01*
X81229200Y-24958523D01*
X81327171Y-25019000D01*
X81621085Y-26228523D02*
X81621085Y-24958523D01*
X81784371Y-24958523D01*
X81882342Y-25019000D01*
X81947657Y-25139952D01*
X81980314Y-25260904D01*
X82012971Y-25502809D01*
X82012971Y-25684238D01*
X81980314Y-25926142D01*
X81947657Y-26047095D01*
X81882342Y-26168047D01*
X81784371Y-26228523D01*
X81621085Y-26228523D01*
X82241571Y-24958523D02*
X82698771Y-24958523D01*
X82404857Y-26228523D01*
X83449885Y-26168047D02*
X83547857Y-26228523D01*
X83711142Y-26228523D01*
X83776457Y-26168047D01*
X83809114Y-26107571D01*
X83841771Y-25986619D01*
X83841771Y-25865666D01*
X83809114Y-25744714D01*
X83776457Y-25684238D01*
X83711142Y-25623761D01*
X83580514Y-25563285D01*
X83515200Y-25502809D01*
X83482542Y-25442333D01*
X83449885Y-25321380D01*
X83449885Y-25200428D01*
X83482542Y-25079476D01*
X83515200Y-25019000D01*
X83580514Y-24958523D01*
X83743800Y-24958523D01*
X83841771Y-25019000D01*
X84527571Y-26107571D02*
X84494914Y-26168047D01*
X84396942Y-26228523D01*
X84331628Y-26228523D01*
X84233657Y-26168047D01*
X84168342Y-26047095D01*
X84135685Y-25926142D01*
X84103028Y-25684238D01*
X84103028Y-25502809D01*
X84135685Y-25260904D01*
X84168342Y-25139952D01*
X84233657Y-25019000D01*
X84331628Y-24958523D01*
X84396942Y-24958523D01*
X84494914Y-25019000D01*
X84527571Y-25079476D01*
X84756171Y-24958523D02*
X85213371Y-24958523D01*
X84919457Y-26228523D01*
X75855285Y-26168047D02*
X75953257Y-26228523D01*
X76116542Y-26228523D01*
X76181857Y-26168047D01*
X76214514Y-26107571D01*
X76247171Y-25986619D01*
X76247171Y-25865666D01*
X76214514Y-25744714D01*
X76181857Y-25684238D01*
X76116542Y-25623761D01*
X75985914Y-25563285D01*
X75920600Y-25502809D01*
X75887942Y-25442333D01*
X75855285Y-25321380D01*
X75855285Y-25200428D01*
X75887942Y-25079476D01*
X75920600Y-25019000D01*
X75985914Y-24958523D01*
X76149200Y-24958523D01*
X76247171Y-25019000D01*
X76541085Y-26228523D02*
X76541085Y-24958523D01*
X76704371Y-24958523D01*
X76802342Y-25019000D01*
X76867657Y-25139952D01*
X76900314Y-25260904D01*
X76932971Y-25502809D01*
X76932971Y-25684238D01*
X76900314Y-25926142D01*
X76867657Y-26047095D01*
X76802342Y-26168047D01*
X76704371Y-26228523D01*
X76541085Y-26228523D01*
X77520800Y-24958523D02*
X77390171Y-24958523D01*
X77324857Y-25019000D01*
X77292200Y-25079476D01*
X77226885Y-25260904D01*
X77194228Y-25502809D01*
X77194228Y-25986619D01*
X77226885Y-26107571D01*
X77259542Y-26168047D01*
X77324857Y-26228523D01*
X77455485Y-26228523D01*
X77520800Y-26168047D01*
X77553457Y-26107571D01*
X77586114Y-25986619D01*
X77586114Y-25684238D01*
X77553457Y-25563285D01*
X77520800Y-25502809D01*
X77455485Y-25442333D01*
X77324857Y-25442333D01*
X77259542Y-25502809D01*
X77226885Y-25563285D01*
X77194228Y-25684238D01*
X78369885Y-26168047D02*
X78467857Y-26228523D01*
X78631142Y-26228523D01*
X78696457Y-26168047D01*
X78729114Y-26107571D01*
X78761771Y-25986619D01*
X78761771Y-25865666D01*
X78729114Y-25744714D01*
X78696457Y-25684238D01*
X78631142Y-25623761D01*
X78500514Y-25563285D01*
X78435200Y-25502809D01*
X78402542Y-25442333D01*
X78369885Y-25321380D01*
X78369885Y-25200428D01*
X78402542Y-25079476D01*
X78435200Y-25019000D01*
X78500514Y-24958523D01*
X78663800Y-24958523D01*
X78761771Y-25019000D01*
X79447571Y-26107571D02*
X79414914Y-26168047D01*
X79316942Y-26228523D01*
X79251628Y-26228523D01*
X79153657Y-26168047D01*
X79088342Y-26047095D01*
X79055685Y-25926142D01*
X79023028Y-25684238D01*
X79023028Y-25502809D01*
X79055685Y-25260904D01*
X79088342Y-25139952D01*
X79153657Y-25019000D01*
X79251628Y-24958523D01*
X79316942Y-24958523D01*
X79414914Y-25019000D01*
X79447571Y-25079476D01*
X80035400Y-24958523D02*
X79904771Y-24958523D01*
X79839457Y-25019000D01*
X79806800Y-25079476D01*
X79741485Y-25260904D01*
X79708828Y-25502809D01*
X79708828Y-25986619D01*
X79741485Y-26107571D01*
X79774142Y-26168047D01*
X79839457Y-26228523D01*
X79970085Y-26228523D01*
X80035400Y-26168047D01*
X80068057Y-26107571D01*
X80100714Y-25986619D01*
X80100714Y-25684238D01*
X80068057Y-25563285D01*
X80035400Y-25502809D01*
X79970085Y-25442333D01*
X79839457Y-25442333D01*
X79774142Y-25502809D01*
X79741485Y-25563285D01*
X79708828Y-25684238D01*
D10*
%TO.C,I2C*%
X49430380Y-29424190D02*
X48430380Y-29424190D01*
X48525619Y-28995619D02*
X48478000Y-28948000D01*
X48430380Y-28852761D01*
X48430380Y-28614666D01*
X48478000Y-28519428D01*
X48525619Y-28471809D01*
X48620857Y-28424190D01*
X48716095Y-28424190D01*
X48858952Y-28471809D01*
X49430380Y-29043238D01*
X49430380Y-28424190D01*
X49335142Y-27424190D02*
X49382761Y-27471809D01*
X49430380Y-27614666D01*
X49430380Y-27709904D01*
X49382761Y-27852761D01*
X49287523Y-27948000D01*
X49192285Y-27995619D01*
X49001809Y-28043238D01*
X48858952Y-28043238D01*
X48668476Y-27995619D01*
X48573238Y-27948000D01*
X48478000Y-27852761D01*
X48430380Y-27709904D01*
X48430380Y-27614666D01*
X48478000Y-27471809D01*
X48525619Y-27424190D01*
%TO.C,H1*%
X16256095Y-26812380D02*
X16256095Y-25812380D01*
X16256095Y-26288571D02*
X16827523Y-26288571D01*
X16827523Y-26812380D02*
X16827523Y-25812380D01*
X17827523Y-26812380D02*
X17256095Y-26812380D01*
X17541809Y-26812380D02*
X17541809Y-25812380D01*
X17446571Y-25955238D01*
X17351333Y-26050476D01*
X17256095Y-26098095D01*
%TO.C,H2*%
X99568095Y-26812380D02*
X99568095Y-25812380D01*
X99568095Y-26288571D02*
X100139523Y-26288571D01*
X100139523Y-26812380D02*
X100139523Y-25812380D01*
X100568095Y-25907619D02*
X100615714Y-25860000D01*
X100710952Y-25812380D01*
X100949047Y-25812380D01*
X101044285Y-25860000D01*
X101091904Y-25907619D01*
X101139523Y-26002857D01*
X101139523Y-26098095D01*
X101091904Y-26240952D01*
X100520476Y-26812380D01*
X101139523Y-26812380D01*
%TO.C,GND*%
X90424095Y-71172000D02*
X90328857Y-71124380D01*
X90186000Y-71124380D01*
X90043142Y-71172000D01*
X89947904Y-71267238D01*
X89900285Y-71362476D01*
X89852666Y-71552952D01*
X89852666Y-71695809D01*
X89900285Y-71886285D01*
X89947904Y-71981523D01*
X90043142Y-72076761D01*
X90186000Y-72124380D01*
X90281238Y-72124380D01*
X90424095Y-72076761D01*
X90471714Y-72029142D01*
X90471714Y-71695809D01*
X90281238Y-71695809D01*
X90900285Y-72124380D02*
X90900285Y-71124380D01*
X91471714Y-72124380D01*
X91471714Y-71124380D01*
X91947904Y-72124380D02*
X91947904Y-71124380D01*
X92186000Y-71124380D01*
X92328857Y-71172000D01*
X92424095Y-71267238D01*
X92471714Y-71362476D01*
X92519333Y-71552952D01*
X92519333Y-71695809D01*
X92471714Y-71886285D01*
X92424095Y-71981523D01*
X92328857Y-72076761D01*
X92186000Y-72124380D01*
X91947904Y-72124380D01*
%TO.C,R*%
X52125523Y-39314380D02*
X51792190Y-38838190D01*
X51554095Y-39314380D02*
X51554095Y-38314380D01*
X51935047Y-38314380D01*
X52030285Y-38362000D01*
X52077904Y-38409619D01*
X52125523Y-38504857D01*
X52125523Y-38647714D01*
X52077904Y-38742952D01*
X52030285Y-38790571D01*
X51935047Y-38838190D01*
X51554095Y-38838190D01*
%TO.C,Feather M0\u002A\u002A*%
X25313238Y-24312571D02*
X24979904Y-24312571D01*
X24979904Y-24836380D02*
X24979904Y-23836380D01*
X25456095Y-23836380D01*
X26218000Y-24788761D02*
X26122761Y-24836380D01*
X25932285Y-24836380D01*
X25837047Y-24788761D01*
X25789428Y-24693523D01*
X25789428Y-24312571D01*
X25837047Y-24217333D01*
X25932285Y-24169714D01*
X26122761Y-24169714D01*
X26218000Y-24217333D01*
X26265619Y-24312571D01*
X26265619Y-24407809D01*
X25789428Y-24503047D01*
X27122761Y-24836380D02*
X27122761Y-24312571D01*
X27075142Y-24217333D01*
X26979904Y-24169714D01*
X26789428Y-24169714D01*
X26694190Y-24217333D01*
X27122761Y-24788761D02*
X27027523Y-24836380D01*
X26789428Y-24836380D01*
X26694190Y-24788761D01*
X26646571Y-24693523D01*
X26646571Y-24598285D01*
X26694190Y-24503047D01*
X26789428Y-24455428D01*
X27027523Y-24455428D01*
X27122761Y-24407809D01*
X27456095Y-24169714D02*
X27837047Y-24169714D01*
X27598952Y-23836380D02*
X27598952Y-24693523D01*
X27646571Y-24788761D01*
X27741809Y-24836380D01*
X27837047Y-24836380D01*
X28170380Y-24836380D02*
X28170380Y-23836380D01*
X28598952Y-24836380D02*
X28598952Y-24312571D01*
X28551333Y-24217333D01*
X28456095Y-24169714D01*
X28313238Y-24169714D01*
X28218000Y-24217333D01*
X28170380Y-24264952D01*
X29456095Y-24788761D02*
X29360857Y-24836380D01*
X29170380Y-24836380D01*
X29075142Y-24788761D01*
X29027523Y-24693523D01*
X29027523Y-24312571D01*
X29075142Y-24217333D01*
X29170380Y-24169714D01*
X29360857Y-24169714D01*
X29456095Y-24217333D01*
X29503714Y-24312571D01*
X29503714Y-24407809D01*
X29027523Y-24503047D01*
X29932285Y-24836380D02*
X29932285Y-24169714D01*
X29932285Y-24360190D02*
X29979904Y-24264952D01*
X30027523Y-24217333D01*
X30122761Y-24169714D01*
X30217999Y-24169714D01*
X31313238Y-24836380D02*
X31313238Y-23836380D01*
X31646571Y-24550666D01*
X31979904Y-23836380D01*
X31979904Y-24836380D01*
X32646571Y-23836380D02*
X32741809Y-23836380D01*
X32837047Y-23884000D01*
X32884666Y-23931619D01*
X32932285Y-24026857D01*
X32979904Y-24217333D01*
X32979904Y-24455428D01*
X32932285Y-24645904D01*
X32884666Y-24741142D01*
X32837047Y-24788761D01*
X32741809Y-24836380D01*
X32646571Y-24836380D01*
X32551333Y-24788761D01*
X32503714Y-24741142D01*
X32456095Y-24645904D01*
X32408476Y-24455428D01*
X32408476Y-24217333D01*
X32456095Y-24026857D01*
X32503714Y-23931619D01*
X32551333Y-23884000D01*
X32646571Y-23836380D01*
X33551333Y-23836380D02*
X33551333Y-24074476D01*
X33313238Y-23979238D02*
X33551333Y-24074476D01*
X33789428Y-23979238D01*
X33408476Y-24264952D02*
X33551333Y-24074476D01*
X33694190Y-24264952D01*
X34313238Y-23836380D02*
X34313238Y-24074476D01*
X34075142Y-23979238D02*
X34313238Y-24074476D01*
X34551333Y-23979238D01*
X34170380Y-24264952D02*
X34313238Y-24074476D01*
X34456095Y-24264952D01*
%TO.C,Boron\u002A\u002A*%
X35234571Y-92673642D02*
X35282190Y-92530785D01*
X35329809Y-92483166D01*
X35425047Y-92435547D01*
X35567904Y-92435547D01*
X35663142Y-92483166D01*
X35710761Y-92530785D01*
X35758380Y-92626023D01*
X35758380Y-93006976D01*
X34758380Y-93006976D01*
X34758380Y-92673642D01*
X34806000Y-92578404D01*
X34853619Y-92530785D01*
X34948857Y-92483166D01*
X35044095Y-92483166D01*
X35139333Y-92530785D01*
X35186952Y-92578404D01*
X35234571Y-92673642D01*
X35234571Y-93006976D01*
X35758380Y-91864119D02*
X35710761Y-91959357D01*
X35663142Y-92006976D01*
X35567904Y-92054595D01*
X35282190Y-92054595D01*
X35186952Y-92006976D01*
X35139333Y-91959357D01*
X35091714Y-91864119D01*
X35091714Y-91721261D01*
X35139333Y-91626023D01*
X35186952Y-91578404D01*
X35282190Y-91530785D01*
X35567904Y-91530785D01*
X35663142Y-91578404D01*
X35710761Y-91626023D01*
X35758380Y-91721261D01*
X35758380Y-91864119D01*
X35758380Y-91102214D02*
X35091714Y-91102214D01*
X35282190Y-91102214D02*
X35186952Y-91054595D01*
X35139333Y-91006976D01*
X35091714Y-90911738D01*
X35091714Y-90816500D01*
X35758380Y-90340309D02*
X35710761Y-90435547D01*
X35663142Y-90483166D01*
X35567904Y-90530785D01*
X35282190Y-90530785D01*
X35186952Y-90483166D01*
X35139333Y-90435547D01*
X35091714Y-90340309D01*
X35091714Y-90197452D01*
X35139333Y-90102214D01*
X35186952Y-90054595D01*
X35282190Y-90006976D01*
X35567904Y-90006976D01*
X35663142Y-90054595D01*
X35710761Y-90102214D01*
X35758380Y-90197452D01*
X35758380Y-90340309D01*
X35091714Y-89578404D02*
X35758380Y-89578404D01*
X35186952Y-89578404D02*
X35139333Y-89530785D01*
X35091714Y-89435547D01*
X35091714Y-89292690D01*
X35139333Y-89197452D01*
X35234571Y-89149833D01*
X35758380Y-89149833D01*
X34758380Y-88530785D02*
X34996476Y-88530785D01*
X34901238Y-88768880D02*
X34996476Y-88530785D01*
X34901238Y-88292690D01*
X35186952Y-88673642D02*
X34996476Y-88530785D01*
X35186952Y-88387928D01*
X34758380Y-87768880D02*
X34996476Y-87768880D01*
X34901238Y-88006976D02*
X34996476Y-87768880D01*
X34901238Y-87530785D01*
X35186952Y-87911738D02*
X34996476Y-87768880D01*
X35186952Y-87626023D01*
%TO.C,H3*%
X16256095Y-110490380D02*
X16256095Y-109490380D01*
X16256095Y-109966571D02*
X16827523Y-109966571D01*
X16827523Y-110490380D02*
X16827523Y-109490380D01*
X17208476Y-109490380D02*
X17827523Y-109490380D01*
X17494190Y-109871333D01*
X17637047Y-109871333D01*
X17732285Y-109918952D01*
X17779904Y-109966571D01*
X17827523Y-110061809D01*
X17827523Y-110299904D01*
X17779904Y-110395142D01*
X17732285Y-110442761D01*
X17637047Y-110490380D01*
X17351333Y-110490380D01*
X17256095Y-110442761D01*
X17208476Y-110395142D01*
%TO.C,L*%
X67365523Y-39314380D02*
X66889333Y-39314380D01*
X66889333Y-38314380D01*
%TO.C,Vin*%
X86098190Y-71124380D02*
X86431523Y-72124380D01*
X86764857Y-71124380D01*
X87098190Y-72124380D02*
X87098190Y-71457714D01*
X87098190Y-71124380D02*
X87050571Y-71172000D01*
X87098190Y-71219619D01*
X87145809Y-71172000D01*
X87098190Y-71124380D01*
X87098190Y-71219619D01*
X87574380Y-71457714D02*
X87574380Y-72124380D01*
X87574380Y-71552952D02*
X87622000Y-71505333D01*
X87717238Y-71457714D01*
X87860095Y-71457714D01*
X87955333Y-71505333D01*
X88002952Y-71600571D01*
X88002952Y-72124380D01*
%TO.C,H4*%
X99568095Y-110490380D02*
X99568095Y-109490380D01*
X99568095Y-109966571D02*
X100139523Y-109966571D01*
X100139523Y-110490380D02*
X100139523Y-109490380D01*
X101044285Y-109823714D02*
X101044285Y-110490380D01*
X100806190Y-109442761D02*
X100568095Y-110157047D01*
X101187142Y-110157047D01*
D12*
%TO.C,I2C*%
X52578000Y-27118000D02*
X90738000Y-27118000D01*
X49978000Y-29778000D02*
X49978000Y-28448000D01*
X90738000Y-29778000D02*
X90738000Y-27118000D01*
X51308000Y-29778000D02*
X49978000Y-29778000D01*
X52578000Y-29778000D02*
X90738000Y-29778000D01*
X52578000Y-29778000D02*
X52578000Y-27118000D01*
%TO.C,GND*%
X92516000Y-68072000D02*
X92516000Y-40072000D01*
X92516000Y-69342000D02*
X92516000Y-70672000D01*
X92516000Y-70672000D02*
X91186000Y-70672000D01*
X89856000Y-68072000D02*
X89856000Y-40072000D01*
X92516000Y-40072000D02*
X89856000Y-40072000D01*
X92516000Y-68072000D02*
X89856000Y-68072000D01*
%TO.C,R*%
X53146000Y-42926000D02*
X53146000Y-70926000D01*
X50486000Y-70926000D02*
X53146000Y-70926000D01*
X50486000Y-40326000D02*
X51816000Y-40326000D01*
X50486000Y-41656000D02*
X50486000Y-40326000D01*
X50486000Y-42926000D02*
X50486000Y-70926000D01*
X50486000Y-42926000D02*
X53146000Y-42926000D01*
%TO.C,Feather M0\u002A\u002A*%
X38608000Y-76564000D02*
X20828000Y-76564000D01*
X17858000Y-33004000D02*
X17858000Y-31004000D01*
X41258000Y-28194000D02*
X41258000Y-73914000D01*
X18178000Y-28194000D02*
X18178000Y-73914000D01*
X38608000Y-25544000D02*
X20828000Y-25544000D01*
X18178000Y-73914000D02*
G75*
G03*
X20828000Y-76564000I2650000J0D01*
G01*
X41258000Y-28194000D02*
G75*
G03*
X38608000Y-25544000I-2650000J0D01*
G01*
X38608000Y-76564000D02*
G75*
G03*
X41258000Y-73914000I0J2650000D01*
G01*
X20828000Y-25544000D02*
G75*
G03*
X18178000Y-28194000I0J-2650000D01*
G01*
%TO.C,Boron\u002A\u002A*%
X36466000Y-99206500D02*
G75*
G03*
X39116000Y-101856500I2650000J0D01*
G01*
X87486000Y-81426500D02*
G75*
G03*
X84836000Y-78776500I-2650000J0D01*
G01*
X39116000Y-78776500D02*
G75*
G03*
X36466000Y-81426500I0J-2650000D01*
G01*
X84836000Y-101856500D02*
G75*
G03*
X87486000Y-99206500I0J2650000D01*
G01*
X36466000Y-81426500D02*
X36466000Y-99206500D01*
X39116000Y-101856500D02*
X84836000Y-101856500D01*
X39116000Y-78776500D02*
X84836000Y-78776500D01*
X43926000Y-102176500D02*
X41926000Y-102176500D01*
X87486000Y-81426500D02*
X87486000Y-99206500D01*
%TO.C,BQ24074*%
X50740000Y-109534000D02*
X50740000Y-108204000D01*
X53340000Y-109534000D02*
X53340000Y-106874000D01*
X53340000Y-109534000D02*
X78800000Y-109534000D01*
X53340000Y-106874000D02*
X78800000Y-106874000D01*
X78800000Y-109534000D02*
X78800000Y-106874000D01*
X52070000Y-109534000D02*
X50740000Y-109534000D01*
%TO.C,L*%
X65726000Y-42926000D02*
X68386000Y-42926000D01*
X68386000Y-42926000D02*
X68386000Y-70926000D01*
X65726000Y-40326000D02*
X67056000Y-40326000D01*
X65726000Y-70926000D02*
X68386000Y-70926000D01*
X65726000Y-41656000D02*
X65726000Y-40326000D01*
X65726000Y-42926000D02*
X65726000Y-70926000D01*
%TO.C,Vin*%
X88452000Y-68072000D02*
X85792000Y-68072000D01*
X85792000Y-68072000D02*
X85792000Y-40072000D01*
X88452000Y-69342000D02*
X88452000Y-70672000D01*
X88452000Y-40072000D02*
X85792000Y-40072000D01*
X88452000Y-68072000D02*
X88452000Y-40072000D01*
X88452000Y-70672000D02*
X87122000Y-70672000D01*
%TD*%
M02*
